%TF.GenerationSoftware,KiCad,Pcbnew,9.0.2*%
%TF.CreationDate,2025-05-24T13:12:06+02:00*%
%TF.ProjectId,morseboard-8088,6d6f7273-6562-46f6-9172-642d38303838,rev?*%
%TF.SameCoordinates,Original*%
%TF.FileFunction,Soldermask,Bot*%
%TF.FilePolarity,Negative*%
%FSLAX46Y46*%
G04 Gerber Fmt 4.6, Leading zero omitted, Abs format (unit mm)*
G04 Created by KiCad (PCBNEW 9.0.2) date 2025-05-24 13:12:06*
%MOMM*%
%LPD*%
G01*
G04 APERTURE LIST*
G04 Aperture macros list*
%AMRoundRect*
0 Rectangle with rounded corners*
0 $1 Rounding radius*
0 $2 $3 $4 $5 $6 $7 $8 $9 X,Y pos of 4 corners*
0 Add a 4 corners polygon primitive as box body*
4,1,4,$2,$3,$4,$5,$6,$7,$8,$9,$2,$3,0*
0 Add four circle primitives for the rounded corners*
1,1,$1+$1,$2,$3*
1,1,$1+$1,$4,$5*
1,1,$1+$1,$6,$7*
1,1,$1+$1,$8,$9*
0 Add four rect primitives between the rounded corners*
20,1,$1+$1,$2,$3,$4,$5,0*
20,1,$1+$1,$4,$5,$6,$7,0*
20,1,$1+$1,$6,$7,$8,$9,0*
20,1,$1+$1,$8,$9,$2,$3,0*%
G04 Aperture macros list end*
%ADD10C,1.600000*%
%ADD11R,1.300000X1.300000*%
%ADD12C,1.300000*%
%ADD13C,2.000000*%
%ADD14R,1.800000X1.800000*%
%ADD15C,1.800000*%
%ADD16R,1.600000X1.600000*%
%ADD17RoundRect,0.250000X0.550000X0.550000X-0.550000X0.550000X-0.550000X-0.550000X0.550000X-0.550000X0*%
%ADD18RoundRect,0.250000X-0.550000X-0.550000X0.550000X-0.550000X0.550000X0.550000X-0.550000X0.550000X0*%
%ADD19R,1.700000X1.700000*%
%ADD20C,1.700000*%
%ADD21R,1.422400X1.422400*%
%ADD22C,1.422400*%
%ADD23RoundRect,0.250000X-0.550000X0.550000X-0.550000X-0.550000X0.550000X-0.550000X0.550000X0.550000X0*%
%ADD24RoundRect,0.250000X0.550000X-0.550000X0.550000X0.550000X-0.550000X0.550000X-0.550000X-0.550000X0*%
%ADD25C,3.200000*%
%ADD26R,2.000000X1.440000*%
%ADD27O,2.000000X1.440000*%
%ADD28O,4.500000X2.500000*%
%ADD29C,4.000000*%
%ADD30C,3.500000*%
G04 APERTURE END LIST*
D10*
%TO.C,C13*%
X171530000Y-124460000D03*
X176530000Y-124460000D03*
%TD*%
D11*
%TO.C,U14*%
X95758000Y-125836000D03*
D12*
X97028000Y-124566000D03*
X98298000Y-125836000D03*
%TD*%
D13*
%TO.C,SW6*%
X102720000Y-123150000D03*
X109220000Y-123150000D03*
X102720000Y-127650000D03*
X109220000Y-127650000D03*
%TD*%
D14*
%TO.C,D9*%
X137160000Y-30480000D03*
D15*
X139700000Y-30480000D03*
%TD*%
D16*
%TO.C,X1*%
X147320000Y-127000000D03*
D10*
X162560000Y-127000000D03*
X162560000Y-119380000D03*
X147320000Y-119380000D03*
%TD*%
D17*
%TO.C,U2*%
X137160000Y-104140000D03*
D10*
X137160000Y-101600000D03*
X137160000Y-99060000D03*
X137160000Y-96520000D03*
X137160000Y-93980000D03*
X137160000Y-91440000D03*
X137160000Y-88900000D03*
X137160000Y-86360000D03*
X137160000Y-83820000D03*
X137160000Y-81280000D03*
X129540000Y-81280000D03*
X129540000Y-83820000D03*
X129540000Y-86360000D03*
X129540000Y-88900000D03*
X129540000Y-91440000D03*
X129540000Y-93980000D03*
X129540000Y-96520000D03*
X129540000Y-99060000D03*
X129540000Y-101600000D03*
X129540000Y-104140000D03*
%TD*%
D17*
%TO.C,U4*%
X121920000Y-104140000D03*
D10*
X121920000Y-101600000D03*
X121920000Y-99060000D03*
X121920000Y-96520000D03*
X121920000Y-93980000D03*
X121920000Y-91440000D03*
X121920000Y-88900000D03*
X121920000Y-86360000D03*
X121920000Y-83820000D03*
X121920000Y-81280000D03*
X114300000Y-81280000D03*
X114300000Y-83820000D03*
X114300000Y-86360000D03*
X114300000Y-88900000D03*
X114300000Y-91440000D03*
X114300000Y-93980000D03*
X114300000Y-96520000D03*
X114300000Y-99060000D03*
X114300000Y-101600000D03*
X114300000Y-104140000D03*
%TD*%
D18*
%TO.C,C1*%
X88940000Y-38100000D03*
D10*
X91440000Y-38100000D03*
%TD*%
D18*
%TO.C,C18*%
X199430000Y-54610000D03*
D10*
X201930000Y-54610000D03*
%TD*%
%TO.C,C14*%
X119380000Y-128270000D03*
X119380000Y-123270000D03*
%TD*%
%TO.C,C7*%
X135810000Y-53340000D03*
X130810000Y-53340000D03*
%TD*%
%TO.C,C10*%
X157400000Y-58420000D03*
X152400000Y-58420000D03*
%TD*%
D14*
%TO.C,D5*%
X88900000Y-80010000D03*
D15*
X91440000Y-80010000D03*
%TD*%
D18*
%TO.C,U8*%
X99060000Y-58420000D03*
D10*
X99060000Y-60960000D03*
X99060000Y-63500000D03*
X99060000Y-66040000D03*
X99060000Y-68580000D03*
X99060000Y-71120000D03*
X99060000Y-73660000D03*
X106680000Y-73660000D03*
X106680000Y-71120000D03*
X106680000Y-68580000D03*
X106680000Y-66040000D03*
X106680000Y-63500000D03*
X106680000Y-60960000D03*
X106680000Y-58420000D03*
%TD*%
D13*
%TO.C,SW4*%
X123040000Y-123135000D03*
X129540000Y-123135000D03*
X123040000Y-127635000D03*
X129540000Y-127635000D03*
%TD*%
D19*
%TO.C,J3*%
X211272000Y-42164000D03*
D20*
X211272000Y-44704000D03*
X211272000Y-47244000D03*
%TD*%
D14*
%TO.C,D7*%
X88900000Y-95250000D03*
D15*
X91440000Y-95250000D03*
%TD*%
D18*
%TO.C,C2*%
X137200000Y-40640000D03*
D10*
X139700000Y-40640000D03*
%TD*%
D21*
%TO.C,U11*%
X158877000Y-35560000D03*
D22*
X156337000Y-33020000D03*
X156337000Y-35560000D03*
X153797000Y-33020000D03*
X153797000Y-35560000D03*
X151257000Y-33020000D03*
X148717000Y-35560000D03*
X151257000Y-35560000D03*
X148717000Y-38100000D03*
X151257000Y-38100000D03*
X148717000Y-40640000D03*
X151257000Y-40640000D03*
X148717000Y-43180000D03*
X151257000Y-43180000D03*
X148717000Y-45720000D03*
X151257000Y-45720000D03*
X148717000Y-48260000D03*
X151257000Y-50800000D03*
X151257000Y-48260000D03*
X153797000Y-50800000D03*
X153797000Y-48260000D03*
X156337000Y-50800000D03*
X156337000Y-48260000D03*
X158877000Y-50800000D03*
X158877000Y-48260000D03*
X161417000Y-50800000D03*
X161417000Y-48260000D03*
X163957000Y-50800000D03*
X166497000Y-48260000D03*
X163957000Y-48260000D03*
X166497000Y-45720000D03*
X163957000Y-45720000D03*
X166497000Y-43180000D03*
X163957000Y-43180000D03*
X166497000Y-40640000D03*
X163957000Y-40640000D03*
X166497000Y-38100000D03*
X163957000Y-38100000D03*
X166497000Y-35560000D03*
X163957000Y-33020000D03*
X163957000Y-35560000D03*
X161417000Y-33020000D03*
X161417000Y-35560000D03*
X158877000Y-33020000D03*
%TD*%
D23*
%TO.C,SW2*%
X205740000Y-120650000D03*
D10*
X203200000Y-120650000D03*
X200660000Y-120650000D03*
X198120000Y-120650000D03*
X195580000Y-120650000D03*
X193040000Y-120650000D03*
X190500000Y-120650000D03*
X187960000Y-120650000D03*
X187960000Y-128270000D03*
X190500000Y-128270000D03*
X193040000Y-128270000D03*
X195580000Y-128270000D03*
X198120000Y-128270000D03*
X200660000Y-128270000D03*
X203200000Y-128270000D03*
X205740000Y-128270000D03*
%TD*%
%TO.C,C6*%
X100410000Y-109220000D03*
X105410000Y-109220000D03*
%TD*%
D24*
%TO.C,U13*%
X182245000Y-48260000D03*
D10*
X184785000Y-48260000D03*
X187325000Y-48260000D03*
X189865000Y-48260000D03*
X192405000Y-48260000D03*
X194945000Y-48260000D03*
X197485000Y-48260000D03*
X200025000Y-48260000D03*
X200025000Y-40640000D03*
X197485000Y-40640000D03*
X194945000Y-40640000D03*
X192405000Y-40640000D03*
X189865000Y-40640000D03*
X187325000Y-40640000D03*
X184785000Y-40640000D03*
X182245000Y-40640000D03*
%TD*%
%TO.C,R2*%
X123190000Y-30480000D03*
X130810000Y-30480000D03*
%TD*%
D14*
%TO.C,D4*%
X88900000Y-72390000D03*
D15*
X91440000Y-72390000D03*
%TD*%
D25*
%TO.C,H1*%
X83820000Y-27940000D03*
%TD*%
D10*
%TO.C,R1*%
X105410000Y-45720000D03*
X113030000Y-45720000D03*
%TD*%
D14*
%TO.C,D3*%
X88900000Y-64770000D03*
D15*
X91440000Y-64770000D03*
%TD*%
D10*
%TO.C,C15*%
X227544000Y-62992000D03*
X222544000Y-62992000D03*
%TD*%
D26*
%TO.C,U5*%
X217643500Y-76844000D03*
D27*
X217643500Y-79384000D03*
X217643500Y-81924000D03*
X217643500Y-84464000D03*
X217643500Y-87004000D03*
X217643500Y-89544000D03*
X217643500Y-92084000D03*
X217643500Y-94624000D03*
X217643500Y-97164000D03*
X217643500Y-99704000D03*
X217643500Y-102244000D03*
X217643500Y-104784000D03*
X217643500Y-107324000D03*
X217643500Y-109864000D03*
X217643500Y-112404000D03*
X217643500Y-114944000D03*
X232883500Y-114944000D03*
X232883500Y-112404000D03*
X232883500Y-109864000D03*
X232883500Y-107324000D03*
X232883500Y-104784000D03*
X232883500Y-102244000D03*
X232883500Y-99704000D03*
X232883500Y-97164000D03*
X232883500Y-94624000D03*
X232883500Y-92084000D03*
X232883500Y-89544000D03*
X232883500Y-87004000D03*
X232883500Y-84464000D03*
X232883500Y-81924000D03*
X232883500Y-79384000D03*
X232883500Y-76844000D03*
%TD*%
D25*
%TO.C,H3*%
X83820000Y-129540000D03*
%TD*%
D14*
%TO.C,D8*%
X88900000Y-102870000D03*
D15*
X91440000Y-102870000D03*
%TD*%
D17*
%TO.C,U12*%
X177800000Y-119380000D03*
D10*
X177800000Y-116840000D03*
X177800000Y-114300000D03*
X177800000Y-111760000D03*
X177800000Y-109220000D03*
X177800000Y-106680000D03*
X177800000Y-104140000D03*
X177800000Y-101600000D03*
X177800000Y-99060000D03*
X177800000Y-96520000D03*
X170180000Y-96520000D03*
X170180000Y-99060000D03*
X170180000Y-101600000D03*
X170180000Y-104140000D03*
X170180000Y-106680000D03*
X170180000Y-109220000D03*
X170180000Y-111760000D03*
X170180000Y-114300000D03*
X170180000Y-116840000D03*
X170180000Y-119380000D03*
%TD*%
D28*
%TO.C,SW1*%
X127000000Y-36720000D03*
X127000000Y-41220000D03*
X127000000Y-45720000D03*
%TD*%
D18*
%TO.C,U6*%
X114380000Y-55800000D03*
D10*
X114380000Y-58340000D03*
X114380000Y-60880000D03*
X114380000Y-63420000D03*
X114380000Y-65960000D03*
X114380000Y-68500000D03*
X114380000Y-71040000D03*
X114380000Y-73580000D03*
X122000000Y-73580000D03*
X122000000Y-71040000D03*
X122000000Y-68500000D03*
X122000000Y-65960000D03*
X122000000Y-63420000D03*
X122000000Y-60880000D03*
X122000000Y-58340000D03*
X122000000Y-55800000D03*
%TD*%
D14*
%TO.C,D1*%
X88900000Y-49530000D03*
D15*
X91440000Y-49530000D03*
%TD*%
D10*
%TO.C,C9*%
X105370000Y-53340000D03*
X100370000Y-53340000D03*
%TD*%
%TO.C,C21*%
X160274000Y-27940000D03*
X155274000Y-27940000D03*
%TD*%
D18*
%TO.C,U3*%
X170180000Y-66040000D03*
D10*
X170180000Y-68580000D03*
X170180000Y-71120000D03*
X170180000Y-73660000D03*
X170180000Y-76200000D03*
X170180000Y-78740000D03*
X170180000Y-81280000D03*
X170180000Y-83820000D03*
X170180000Y-86360000D03*
X170180000Y-88900000D03*
X177800000Y-88900000D03*
X177800000Y-86360000D03*
X177800000Y-83820000D03*
X177800000Y-81280000D03*
X177800000Y-78740000D03*
X177800000Y-76200000D03*
X177800000Y-73660000D03*
X177800000Y-71120000D03*
X177800000Y-68580000D03*
X177800000Y-66040000D03*
%TD*%
%TO.C,R8*%
X134620000Y-127635000D03*
X134620000Y-120015000D03*
%TD*%
D16*
%TO.C,RN2*%
X83820000Y-48260000D03*
D10*
X83820000Y-50800000D03*
X83820000Y-53340000D03*
X83820000Y-55880000D03*
X83820000Y-58420000D03*
X83820000Y-60960000D03*
X83820000Y-63500000D03*
X83820000Y-66040000D03*
X83820000Y-68580000D03*
%TD*%
D18*
%TO.C,U1*%
X147320000Y-63500000D03*
D10*
X147320000Y-66040000D03*
X147320000Y-68580000D03*
X147320000Y-71120000D03*
X147320000Y-73660000D03*
X147320000Y-76200000D03*
X147320000Y-78740000D03*
X147320000Y-81280000D03*
X147320000Y-83820000D03*
X147320000Y-86360000D03*
X147320000Y-88900000D03*
X147320000Y-91440000D03*
X147320000Y-93980000D03*
X147320000Y-96520000D03*
X147320000Y-99060000D03*
X147320000Y-101600000D03*
X147320000Y-104140000D03*
X147320000Y-106680000D03*
X147320000Y-109220000D03*
X147320000Y-111760000D03*
X162560000Y-111760000D03*
X162560000Y-109220000D03*
X162560000Y-106680000D03*
X162560000Y-104140000D03*
X162560000Y-101600000D03*
X162560000Y-99060000D03*
X162560000Y-96520000D03*
X162560000Y-93980000D03*
X162560000Y-91440000D03*
X162560000Y-88900000D03*
X162560000Y-86360000D03*
X162560000Y-83820000D03*
X162560000Y-81280000D03*
X162560000Y-78740000D03*
X162560000Y-76200000D03*
X162560000Y-73660000D03*
X162560000Y-71120000D03*
X162560000Y-68580000D03*
X162560000Y-66040000D03*
X162560000Y-63500000D03*
%TD*%
D17*
%TO.C,U10*%
X106680000Y-104140000D03*
D10*
X106680000Y-101600000D03*
X106680000Y-99060000D03*
X106680000Y-96520000D03*
X106680000Y-93980000D03*
X106680000Y-91440000D03*
X106680000Y-88900000D03*
X106680000Y-86360000D03*
X106680000Y-83820000D03*
X106680000Y-81280000D03*
X99060000Y-81280000D03*
X99060000Y-83820000D03*
X99060000Y-86360000D03*
X99060000Y-88900000D03*
X99060000Y-91440000D03*
X99060000Y-93980000D03*
X99060000Y-96520000D03*
X99060000Y-99060000D03*
X99060000Y-101600000D03*
X99060000Y-104140000D03*
%TD*%
D18*
%TO.C,U7*%
X129540000Y-58420000D03*
D10*
X129540000Y-60960000D03*
X129540000Y-63500000D03*
X129540000Y-66040000D03*
X129540000Y-68580000D03*
X129540000Y-71120000D03*
X129540000Y-73660000D03*
X137160000Y-73660000D03*
X137160000Y-71120000D03*
X137160000Y-68580000D03*
X137160000Y-66040000D03*
X137160000Y-63500000D03*
X137160000Y-60960000D03*
X137160000Y-58420000D03*
%TD*%
D29*
%TO.C,J2*%
X202800000Y-30353000D03*
X177800000Y-30353000D03*
D16*
X195840000Y-33193000D03*
D10*
X193070000Y-33193000D03*
X190300000Y-33193000D03*
X187530000Y-33193000D03*
X184760000Y-33193000D03*
X194455000Y-30353000D03*
X191685000Y-30353000D03*
X188915000Y-30353000D03*
X186145000Y-30353000D03*
%TD*%
D16*
%TO.C,RN1*%
X185420000Y-115570000D03*
D10*
X187960000Y-115570000D03*
X190500000Y-115570000D03*
X193040000Y-115570000D03*
X195580000Y-115570000D03*
X198120000Y-115570000D03*
X200660000Y-115570000D03*
X203200000Y-115570000D03*
X205740000Y-115570000D03*
%TD*%
%TO.C,C4*%
X130890000Y-109220000D03*
X135890000Y-109220000D03*
%TD*%
D19*
%TO.C,J6*%
X235712000Y-42164000D03*
D20*
X235712000Y-44704000D03*
X235712000Y-47244000D03*
%TD*%
D25*
%TO.C,H4*%
X238506000Y-129540000D03*
%TD*%
D14*
%TO.C,D6*%
X88900000Y-87630000D03*
D15*
X91440000Y-87630000D03*
%TD*%
D10*
%TO.C,C8*%
X120570000Y-50800000D03*
X115570000Y-50800000D03*
%TD*%
%TO.C,C3*%
X142240000Y-120690000D03*
X142240000Y-125690000D03*
%TD*%
D19*
%TO.C,J1*%
X105430000Y-39597500D03*
D20*
X107930000Y-39597500D03*
X107930000Y-37597500D03*
X105430000Y-37597500D03*
D30*
X100660000Y-34887500D03*
X112700000Y-34887500D03*
%TD*%
D10*
%TO.C,C5*%
X115650000Y-109220000D03*
X120650000Y-109220000D03*
%TD*%
D19*
%TO.C,J5*%
X227565300Y-42149000D03*
D20*
X227565300Y-44689000D03*
X227565300Y-47229000D03*
%TD*%
D18*
%TO.C,U9*%
X188087000Y-69342000D03*
D10*
X188087000Y-71882000D03*
X188087000Y-74422000D03*
X188087000Y-76962000D03*
X188087000Y-79502000D03*
X188087000Y-82042000D03*
X188087000Y-84582000D03*
X188087000Y-87122000D03*
X188087000Y-89662000D03*
X188087000Y-92202000D03*
X188087000Y-94742000D03*
X188087000Y-97282000D03*
X188087000Y-99822000D03*
X188087000Y-102362000D03*
X188087000Y-104902000D03*
X188087000Y-107442000D03*
X203327000Y-107442000D03*
X203327000Y-104902000D03*
X203327000Y-102362000D03*
X203327000Y-99822000D03*
X203327000Y-97282000D03*
X203327000Y-94742000D03*
X203327000Y-92202000D03*
X203327000Y-89662000D03*
X203327000Y-87122000D03*
X203327000Y-84582000D03*
X203327000Y-82042000D03*
X203327000Y-79502000D03*
X203327000Y-76962000D03*
X203327000Y-74422000D03*
X203327000Y-71882000D03*
X203327000Y-69342000D03*
%TD*%
D14*
%TO.C,D2*%
X88900000Y-57150000D03*
D15*
X91440000Y-57150000D03*
%TD*%
D10*
%TO.C,C12*%
X206502000Y-69342000D03*
X206502000Y-74342000D03*
%TD*%
D18*
%TO.C,C20*%
X180380000Y-54610000D03*
D10*
X182880000Y-54610000D03*
%TD*%
D19*
%TO.C,J4*%
X219418700Y-42149000D03*
D20*
X219418700Y-44689000D03*
X219418700Y-47229000D03*
%TD*%
D10*
%TO.C,C11*%
X176450000Y-61595000D03*
X171450000Y-61595000D03*
%TD*%
D25*
%TO.C,H2*%
X238506000Y-27940000D03*
%TD*%
D10*
%TO.C,C16*%
X177165000Y-46910000D03*
X177165000Y-41910000D03*
%TD*%
D18*
%TO.C,C19*%
X193080000Y-54610000D03*
D10*
X195580000Y-54610000D03*
%TD*%
D18*
%TO.C,C17*%
X186730000Y-54610000D03*
D10*
X189230000Y-54610000D03*
%TD*%
M02*
