%TF.GenerationSoftware,KiCad,Pcbnew,9.0.1*%
%TF.CreationDate,2025-05-07T19:21:37+02:00*%
%TF.ProjectId,morseboard-8088,6d6f7273-6562-46f6-9172-642d38303838,rev?*%
%TF.SameCoordinates,Original*%
%TF.FileFunction,Soldermask,Top*%
%TF.FilePolarity,Negative*%
%FSLAX46Y46*%
G04 Gerber Fmt 4.6, Leading zero omitted, Abs format (unit mm)*
G04 Created by KiCad (PCBNEW 9.0.1) date 2025-05-07 19:21:37*
%MOMM*%
%LPD*%
G01*
G04 APERTURE LIST*
G04 Aperture macros list*
%AMRoundRect*
0 Rectangle with rounded corners*
0 $1 Rounding radius*
0 $2 $3 $4 $5 $6 $7 $8 $9 X,Y pos of 4 corners*
0 Add a 4 corners polygon primitive as box body*
4,1,4,$2,$3,$4,$5,$6,$7,$8,$9,$2,$3,0*
0 Add four circle primitives for the rounded corners*
1,1,$1+$1,$2,$3*
1,1,$1+$1,$4,$5*
1,1,$1+$1,$6,$7*
1,1,$1+$1,$8,$9*
0 Add four rect primitives between the rounded corners*
20,1,$1+$1,$2,$3,$4,$5,0*
20,1,$1+$1,$4,$5,$6,$7,0*
20,1,$1+$1,$6,$7,$8,$9,0*
20,1,$1+$1,$8,$9,$2,$3,0*%
G04 Aperture macros list end*
%ADD10RoundRect,0.250000X0.550000X0.550000X-0.550000X0.550000X-0.550000X-0.550000X0.550000X-0.550000X0*%
%ADD11C,1.600000*%
%ADD12RoundRect,0.250000X-0.550000X-0.550000X0.550000X-0.550000X0.550000X0.550000X-0.550000X0.550000X0*%
%ADD13C,2.000000*%
%ADD14O,4.500000X2.500000*%
%ADD15R,1.600000X1.600000*%
%ADD16O,1.600000X1.600000*%
%ADD17R,1.700000X1.700000*%
%ADD18C,1.700000*%
%ADD19R,1.800000X1.800000*%
%ADD20C,1.800000*%
%ADD21C,3.500000*%
%ADD22O,2.000000X1.440000*%
%ADD23R,2.000000X1.440000*%
G04 APERTURE END LIST*
D10*
%TO.C,U11*%
X177800000Y-113030000D03*
D11*
X177800000Y-110490000D03*
X177800000Y-107950000D03*
X177800000Y-105410000D03*
X177800000Y-102870000D03*
X177800000Y-100330000D03*
X177800000Y-97790000D03*
X177800000Y-95250000D03*
X170180000Y-95250000D03*
X170180000Y-97790000D03*
X170180000Y-100330000D03*
X170180000Y-102870000D03*
X170180000Y-105410000D03*
X170180000Y-107950000D03*
X170180000Y-110490000D03*
X170180000Y-113030000D03*
%TD*%
%TO.C,U10*%
X99060000Y-104140000D03*
X99060000Y-101600000D03*
X99060000Y-99060000D03*
X99060000Y-96520000D03*
X99060000Y-93980000D03*
X99060000Y-91440000D03*
X99060000Y-88900000D03*
X99060000Y-86360000D03*
X99060000Y-83820000D03*
X99060000Y-81280000D03*
X106680000Y-81280000D03*
X106680000Y-83820000D03*
X106680000Y-86360000D03*
X106680000Y-88900000D03*
X106680000Y-91440000D03*
X106680000Y-93980000D03*
X106680000Y-96520000D03*
X106680000Y-99060000D03*
X106680000Y-101600000D03*
D10*
X106680000Y-104140000D03*
%TD*%
D12*
%TO.C,U9*%
X185420000Y-63500000D03*
D11*
X185420000Y-66040000D03*
X185420000Y-68580000D03*
X185420000Y-71120000D03*
X185420000Y-73660000D03*
X185420000Y-76200000D03*
X185420000Y-78740000D03*
X185420000Y-81280000D03*
X185420000Y-83820000D03*
X185420000Y-86360000D03*
X185420000Y-88900000D03*
X185420000Y-91440000D03*
X185420000Y-93980000D03*
X185420000Y-96520000D03*
X185420000Y-99060000D03*
X185420000Y-101600000D03*
X200660000Y-101600000D03*
X200660000Y-99060000D03*
X200660000Y-96520000D03*
X200660000Y-93980000D03*
X200660000Y-91440000D03*
X200660000Y-88900000D03*
X200660000Y-86360000D03*
X200660000Y-83820000D03*
X200660000Y-81280000D03*
X200660000Y-78740000D03*
X200660000Y-76200000D03*
X200660000Y-73660000D03*
X200660000Y-71120000D03*
X200660000Y-68580000D03*
X200660000Y-66040000D03*
X200660000Y-63500000D03*
%TD*%
D12*
%TO.C,U6*%
X114300000Y-55880000D03*
D11*
X114300000Y-58420000D03*
X114300000Y-60960000D03*
X114300000Y-63500000D03*
X114300000Y-66040000D03*
X114300000Y-68580000D03*
X114300000Y-71120000D03*
X114300000Y-73660000D03*
X121920000Y-73660000D03*
X121920000Y-71120000D03*
X121920000Y-68580000D03*
X121920000Y-66040000D03*
X121920000Y-63500000D03*
X121920000Y-60960000D03*
X121920000Y-58420000D03*
X121920000Y-55880000D03*
%TD*%
D13*
%TO.C,SW2*%
X178585000Y-127000000D03*
X172085000Y-127000000D03*
X178585000Y-122500000D03*
X172085000Y-122500000D03*
%TD*%
D14*
%TO.C,SW1*%
X127000000Y-36720000D03*
X127000000Y-41220000D03*
X127000000Y-45720000D03*
%TD*%
D15*
%TO.C,RN5*%
X248920000Y-71120000D03*
D11*
X248920000Y-73660000D03*
X248920000Y-76200000D03*
X248920000Y-78740000D03*
X248920000Y-81280000D03*
X248920000Y-83820000D03*
X248920000Y-86360000D03*
X248920000Y-88900000D03*
X248920000Y-91440000D03*
%TD*%
D15*
%TO.C,RN4*%
X243840000Y-114300000D03*
D11*
X241300000Y-114300000D03*
X238760000Y-114300000D03*
X236220000Y-114300000D03*
X233680000Y-114300000D03*
X231140000Y-114300000D03*
X228600000Y-114300000D03*
X226060000Y-114300000D03*
X223520000Y-114300000D03*
%TD*%
D15*
%TO.C,RN3*%
X185420000Y-57150000D03*
D11*
X182880000Y-57150000D03*
X180340000Y-57150000D03*
X177800000Y-57150000D03*
X175260000Y-57150000D03*
X172720000Y-57150000D03*
X170180000Y-57150000D03*
X167640000Y-57150000D03*
X165100000Y-57150000D03*
%TD*%
D15*
%TO.C,RN2*%
X185420000Y-33020000D03*
D11*
X182880000Y-33020000D03*
X180340000Y-33020000D03*
X177800000Y-33020000D03*
X175260000Y-33020000D03*
X172720000Y-33020000D03*
X170180000Y-33020000D03*
X167640000Y-33020000D03*
X165100000Y-33020000D03*
%TD*%
%TO.C,RN1*%
X83820000Y-86360000D03*
X83820000Y-83820000D03*
X83820000Y-81280000D03*
X83820000Y-78740000D03*
X83820000Y-76200000D03*
X83820000Y-73660000D03*
X83820000Y-71120000D03*
X83820000Y-68580000D03*
D15*
X83820000Y-66040000D03*
%TD*%
D11*
%TO.C,R5*%
X200660000Y-116840000D03*
D16*
X200660000Y-109220000D03*
%TD*%
D11*
%TO.C,R4*%
X205740000Y-116840000D03*
D16*
X205740000Y-109220000D03*
%TD*%
D11*
%TO.C,R3*%
X185420000Y-119380000D03*
D16*
X185420000Y-127000000D03*
%TD*%
D17*
%TO.C,J2*%
X142240000Y-111760000D03*
D18*
X142240000Y-109220000D03*
X142240000Y-106680000D03*
%TD*%
D19*
%TO.C,D41*%
X241300000Y-106680000D03*
D20*
X243840000Y-106680000D03*
%TD*%
D19*
%TO.C,D40*%
X241300000Y-99210000D03*
D20*
X243840000Y-99210000D03*
%TD*%
D19*
%TO.C,D39*%
X241300000Y-91740000D03*
D20*
X243840000Y-91740000D03*
%TD*%
D19*
%TO.C,D38*%
X241300000Y-84270000D03*
D20*
X243840000Y-84270000D03*
%TD*%
D19*
%TO.C,D37*%
X241300000Y-76800000D03*
D20*
X243840000Y-76800000D03*
%TD*%
D19*
%TO.C,D36*%
X241300000Y-69330000D03*
D20*
X243840000Y-69330000D03*
%TD*%
D19*
%TO.C,D35*%
X241300000Y-61860000D03*
D20*
X243840000Y-61860000D03*
%TD*%
D19*
%TO.C,D34*%
X241300000Y-54390000D03*
D20*
X243840000Y-54390000D03*
%TD*%
D19*
%TO.C,D33*%
X191550000Y-124460000D03*
D20*
X194090000Y-124460000D03*
%TD*%
D19*
%TO.C,D32*%
X199020000Y-124460000D03*
D20*
X201560000Y-124460000D03*
%TD*%
D19*
%TO.C,D31*%
X206490000Y-124460000D03*
D20*
X209030000Y-124460000D03*
%TD*%
D19*
%TO.C,D30*%
X213960000Y-124460000D03*
D20*
X216500000Y-124460000D03*
%TD*%
D19*
%TO.C,D29*%
X221430000Y-124460000D03*
D20*
X223970000Y-124460000D03*
%TD*%
D19*
%TO.C,D28*%
X228900000Y-124460000D03*
D20*
X231440000Y-124460000D03*
%TD*%
D19*
%TO.C,D27*%
X236370000Y-124460000D03*
D20*
X238910000Y-124460000D03*
%TD*%
D19*
%TO.C,D26*%
X243840000Y-124460000D03*
D20*
X246380000Y-124460000D03*
%TD*%
D19*
%TO.C,D25*%
X145680000Y-50800000D03*
D20*
X148220000Y-50800000D03*
%TD*%
D19*
%TO.C,D24*%
X153150000Y-50800000D03*
D20*
X155690000Y-50800000D03*
%TD*%
D19*
%TO.C,D23*%
X160620000Y-50800000D03*
D20*
X163160000Y-50800000D03*
%TD*%
D19*
%TO.C,D22*%
X168090000Y-50800000D03*
D20*
X170630000Y-50800000D03*
%TD*%
D19*
%TO.C,D21*%
X175560000Y-50800000D03*
D20*
X178100000Y-50800000D03*
%TD*%
D19*
%TO.C,D20*%
X183030000Y-50800000D03*
D20*
X185570000Y-50800000D03*
%TD*%
D19*
%TO.C,D19*%
X190500000Y-50800000D03*
D20*
X193040000Y-50800000D03*
%TD*%
D19*
%TO.C,D18*%
X197970000Y-50800000D03*
D20*
X200510000Y-50800000D03*
%TD*%
D19*
%TO.C,D17*%
X145680000Y-40640000D03*
D20*
X148220000Y-40640000D03*
%TD*%
D19*
%TO.C,D16*%
X153150000Y-40640000D03*
D20*
X155690000Y-40640000D03*
%TD*%
D19*
%TO.C,D15*%
X160620000Y-40640000D03*
D20*
X163160000Y-40640000D03*
%TD*%
D19*
%TO.C,D14*%
X168090000Y-40640000D03*
D20*
X170630000Y-40640000D03*
%TD*%
D19*
%TO.C,D13*%
X175560000Y-40640000D03*
D20*
X178100000Y-40640000D03*
%TD*%
D19*
%TO.C,D12*%
X183030000Y-40640000D03*
D20*
X185570000Y-40640000D03*
%TD*%
D19*
%TO.C,D11*%
X190500000Y-40640000D03*
D20*
X193040000Y-40640000D03*
%TD*%
D19*
%TO.C,D10*%
X197970000Y-40640000D03*
D20*
X200510000Y-40640000D03*
%TD*%
D19*
%TO.C,D8*%
X88900000Y-101600000D03*
D20*
X91440000Y-101600000D03*
%TD*%
D19*
%TO.C,D7*%
X88900000Y-94130000D03*
D20*
X91440000Y-94130000D03*
%TD*%
D19*
%TO.C,D6*%
X88900000Y-86660000D03*
D20*
X91440000Y-86660000D03*
%TD*%
D19*
%TO.C,D5*%
X88900000Y-79190000D03*
D20*
X91440000Y-79190000D03*
%TD*%
D19*
%TO.C,D4*%
X88900000Y-71720000D03*
D20*
X91440000Y-71720000D03*
%TD*%
D19*
%TO.C,D3*%
X88900000Y-64250000D03*
D20*
X91440000Y-64250000D03*
%TD*%
D19*
%TO.C,D2*%
X88900000Y-56780000D03*
D20*
X91440000Y-56780000D03*
%TD*%
D19*
%TO.C,D1*%
X88900000Y-49310000D03*
D20*
X91440000Y-49310000D03*
%TD*%
D15*
%TO.C,C19*%
X193040000Y-111760000D03*
D11*
X195540000Y-111760000D03*
%TD*%
%TO.C,C18*%
X167640000Y-121920000D03*
X167640000Y-126920000D03*
%TD*%
D15*
%TO.C,C17*%
X185420000Y-111760000D03*
D11*
X187920000Y-111760000D03*
%TD*%
%TO.C,C1*%
X91440000Y-38100000D03*
D15*
X88940000Y-38100000D03*
%TD*%
D11*
%TO.C,C2*%
X139700000Y-40640000D03*
D15*
X137200000Y-40640000D03*
%TD*%
D11*
%TO.C,C3*%
X176530000Y-118110000D03*
X171530000Y-118110000D03*
%TD*%
%TO.C,C9*%
X100370000Y-53340000D03*
X105370000Y-53340000D03*
%TD*%
%TO.C,C6*%
X105410000Y-109220000D03*
X100410000Y-109220000D03*
%TD*%
%TO.C,C5*%
X120650000Y-109220000D03*
X115650000Y-109220000D03*
%TD*%
%TO.C,C4*%
X135890000Y-109220000D03*
X130890000Y-109220000D03*
%TD*%
%TO.C,C7*%
X130810000Y-53340000D03*
X135810000Y-53340000D03*
%TD*%
%TO.C,C8*%
X115570000Y-50800000D03*
X120570000Y-50800000D03*
%TD*%
%TO.C,C15*%
X96520000Y-123135000D03*
X96520000Y-128135000D03*
%TD*%
D20*
%TO.C,D9*%
X139700000Y-30480000D03*
D19*
X137160000Y-30480000D03*
%TD*%
D11*
%TO.C,R7*%
X111760000Y-127635000D03*
D16*
X111760000Y-120015000D03*
%TD*%
%TO.C,R2*%
X130810000Y-30480000D03*
D11*
X123190000Y-30480000D03*
%TD*%
D13*
%TO.C,SW3*%
X100180000Y-123135000D03*
X106680000Y-123135000D03*
X100180000Y-127635000D03*
X106680000Y-127635000D03*
%TD*%
D11*
%TO.C,U1*%
X162560000Y-63500000D03*
X162560000Y-66040000D03*
X162560000Y-68580000D03*
X162560000Y-71120000D03*
X162560000Y-73660000D03*
X162560000Y-76200000D03*
X162560000Y-78740000D03*
X162560000Y-81280000D03*
X162560000Y-83820000D03*
X162560000Y-86360000D03*
X162560000Y-88900000D03*
X162560000Y-91440000D03*
X162560000Y-93980000D03*
X162560000Y-96520000D03*
X162560000Y-99060000D03*
X162560000Y-101600000D03*
X162560000Y-104140000D03*
X162560000Y-106680000D03*
X162560000Y-109220000D03*
X162560000Y-111760000D03*
X147320000Y-111760000D03*
X147320000Y-109220000D03*
X147320000Y-106680000D03*
X147320000Y-104140000D03*
X147320000Y-101600000D03*
X147320000Y-99060000D03*
X147320000Y-96520000D03*
X147320000Y-93980000D03*
X147320000Y-91440000D03*
X147320000Y-88900000D03*
X147320000Y-86360000D03*
X147320000Y-83820000D03*
X147320000Y-81280000D03*
X147320000Y-78740000D03*
X147320000Y-76200000D03*
X147320000Y-73660000D03*
X147320000Y-71120000D03*
X147320000Y-68580000D03*
X147320000Y-66040000D03*
D12*
X147320000Y-63500000D03*
%TD*%
D11*
%TO.C,U3*%
X177800000Y-66040000D03*
X177800000Y-68580000D03*
X177800000Y-71120000D03*
X177800000Y-73660000D03*
X177800000Y-76200000D03*
X177800000Y-78740000D03*
X177800000Y-81280000D03*
X177800000Y-83820000D03*
X177800000Y-86360000D03*
X177800000Y-88900000D03*
X170180000Y-88900000D03*
X170180000Y-86360000D03*
X170180000Y-83820000D03*
X170180000Y-81280000D03*
X170180000Y-78740000D03*
X170180000Y-76200000D03*
X170180000Y-73660000D03*
X170180000Y-71120000D03*
X170180000Y-68580000D03*
D12*
X170180000Y-66040000D03*
%TD*%
D21*
%TO.C,J1*%
X112700000Y-34887500D03*
X100660000Y-34887500D03*
D18*
X105430000Y-37597500D03*
X107930000Y-37597500D03*
X107930000Y-39597500D03*
D17*
X105430000Y-39597500D03*
%TD*%
D11*
%TO.C,C14*%
X119380000Y-128270000D03*
X119380000Y-123270000D03*
%TD*%
%TO.C,C12*%
X203835000Y-68500000D03*
X203835000Y-63500000D03*
%TD*%
%TO.C,C11*%
X171450000Y-61595000D03*
X176450000Y-61595000D03*
%TD*%
%TO.C,C10*%
X152400000Y-58420000D03*
X157400000Y-58420000D03*
%TD*%
%TO.C,C13*%
X234950000Y-63500000D03*
X234950000Y-68500000D03*
%TD*%
D16*
%TO.C,R1*%
X113030000Y-45720000D03*
D11*
X105410000Y-45720000D03*
%TD*%
%TO.C,R8*%
X134620000Y-127635000D03*
D16*
X134620000Y-120015000D03*
%TD*%
D13*
%TO.C,SW4*%
X123040000Y-123135000D03*
X129540000Y-123135000D03*
X123040000Y-127635000D03*
X129540000Y-127635000D03*
%TD*%
D10*
%TO.C,U2*%
X137160000Y-104140000D03*
D11*
X137160000Y-101600000D03*
X137160000Y-99060000D03*
X137160000Y-96520000D03*
X137160000Y-93980000D03*
X137160000Y-91440000D03*
X137160000Y-88900000D03*
X137160000Y-86360000D03*
X137160000Y-83820000D03*
X137160000Y-81280000D03*
X129540000Y-81280000D03*
X129540000Y-83820000D03*
X129540000Y-86360000D03*
X129540000Y-88900000D03*
X129540000Y-91440000D03*
X129540000Y-93980000D03*
X129540000Y-96520000D03*
X129540000Y-99060000D03*
X129540000Y-101600000D03*
X129540000Y-104140000D03*
%TD*%
D22*
%TO.C,U5*%
X228600000Y-63500000D03*
X228600000Y-66040000D03*
X228600000Y-68580000D03*
X228600000Y-71120000D03*
X228600000Y-73660000D03*
X228600000Y-76200000D03*
X228600000Y-78740000D03*
X228600000Y-81280000D03*
X228600000Y-83820000D03*
X228600000Y-86360000D03*
X228600000Y-88900000D03*
X228600000Y-91440000D03*
X228600000Y-93980000D03*
X228600000Y-96520000D03*
X228600000Y-99060000D03*
X228600000Y-101600000D03*
X213360000Y-101600000D03*
X213360000Y-99060000D03*
X213360000Y-96520000D03*
X213360000Y-93980000D03*
X213360000Y-91440000D03*
X213360000Y-88900000D03*
X213360000Y-86360000D03*
X213360000Y-83820000D03*
X213360000Y-81280000D03*
X213360000Y-78740000D03*
X213360000Y-76200000D03*
X213360000Y-73660000D03*
X213360000Y-71120000D03*
X213360000Y-68580000D03*
X213360000Y-66040000D03*
D23*
X213360000Y-63500000D03*
%TD*%
D11*
%TO.C,U4*%
X114300000Y-104140000D03*
X114300000Y-101600000D03*
X114300000Y-99060000D03*
X114300000Y-96520000D03*
X114300000Y-93980000D03*
X114300000Y-91440000D03*
X114300000Y-88900000D03*
X114300000Y-86360000D03*
X114300000Y-83820000D03*
X114300000Y-81280000D03*
X121920000Y-81280000D03*
X121920000Y-83820000D03*
X121920000Y-86360000D03*
X121920000Y-88900000D03*
X121920000Y-91440000D03*
X121920000Y-93980000D03*
X121920000Y-96520000D03*
X121920000Y-99060000D03*
X121920000Y-101600000D03*
D10*
X121920000Y-104140000D03*
%TD*%
D11*
%TO.C,U8*%
X106680000Y-58420000D03*
X106680000Y-60960000D03*
X106680000Y-63500000D03*
X106680000Y-66040000D03*
X106680000Y-68580000D03*
X106680000Y-71120000D03*
X106680000Y-73660000D03*
X99060000Y-73660000D03*
X99060000Y-71120000D03*
X99060000Y-68580000D03*
X99060000Y-66040000D03*
X99060000Y-63500000D03*
X99060000Y-60960000D03*
D12*
X99060000Y-58420000D03*
%TD*%
D11*
%TO.C,X1*%
X147320000Y-120650000D03*
X162560000Y-120650000D03*
X162560000Y-128270000D03*
D15*
X147320000Y-128270000D03*
%TD*%
D11*
%TO.C,U7*%
X137160000Y-58420000D03*
X137160000Y-60960000D03*
X137160000Y-63500000D03*
X137160000Y-66040000D03*
X137160000Y-68580000D03*
X137160000Y-71120000D03*
X137160000Y-73660000D03*
X129540000Y-73660000D03*
X129540000Y-71120000D03*
X129540000Y-68580000D03*
X129540000Y-66040000D03*
X129540000Y-63500000D03*
X129540000Y-60960000D03*
D12*
X129540000Y-58420000D03*
%TD*%
M02*
