M48
; DRILL file {KiCad 9.0.2} date 2025-05-24T13:12:07+0200
; FORMAT={-:-/ absolute / metric / decimal}
; #@! TF.CreationDate,2025-05-24T13:12:07+02:00
; #@! TF.GenerationSoftware,Kicad,Pcbnew,9.0.2
; #@! TF.FileFunction,Plated,1,2,PTH
FMAT,2
METRIC
; #@! TA.AperFunction,Plated,PTH,ViaDrill
T1C0.300
; #@! TA.AperFunction,Plated,PTH,ComponentDrill
T2C0.750
; #@! TA.AperFunction,Plated,PTH,ComponentDrill
T3C0.800
; #@! TA.AperFunction,Plated,PTH,ComponentDrill
T4C0.900
; #@! TA.AperFunction,Plated,PTH,ComponentDrill
T5C0.920
; #@! TA.AperFunction,Plated,PTH,ComponentDrill
T6C1.000
; #@! TA.AperFunction,Plated,PTH,ComponentDrill
T7C1.100
; #@! TA.AperFunction,Plated,PTH,ComponentDrill
T8C2.330
; #@! TA.AperFunction,Plated,PTH,ComponentDrill
T9C3.200
%
G90
G05
T1
X102.105Y-67.058
X103.968Y-83.422
X108.624Y-58.243
X109.952Y-57.35
X115.167Y-48.234
X117.359Y-47.634
X122.945Y-44.227
X123.809Y-34.693
X130.442Y-77.636
X130.476Y-42.019
X130.578Y-98.142
X134.606Y-84.222
X135.204Y-99.059
X140.876Y-57.583
X142.809Y-64.89
X145.682Y-112.847
X146.045Y-73.096
X147.009Y-45.526
X150.345Y-49.905
X153.926Y-88.468
X153.938Y-102.711
X154.03Y-110.759
X154.888Y-115.721
X155.941Y-86.546
X156.215Y-96.52
X156.329Y-108.675
X156.542Y-84.228
X156.559Y-89.258
X156.56Y-92.005
X156.797Y-78.558
X156.981Y-112.861
X157.128Y-94.958
X157.179Y-87.098
X160.99Y-91.071
X165.36Y-91.557
X165.976Y-63.7
X167.458Y-93.263
X167.511Y-91.447
X168.086Y-92.576
X168.651Y-93.808
X171.186Y-98.202
X172.19Y-102.395
X172.408Y-94.145
X175.954Y-94.763
X177.529Y-34.48
X178.03Y-58.235
X180.723Y-71.12
X183.896Y-129.54
X183.921Y-81.251
X184.738Y-86.915
X186.412Y-79.337
X191.743Y-36.587
X216.916Y-130.048
T2
X95.758Y-125.836
X97.028Y-124.566
X98.298Y-125.836
T3
X83.82Y-48.26
X83.82Y-50.8
X83.82Y-53.34
X83.82Y-55.88
X83.82Y-58.42
X83.82Y-60.96
X83.82Y-63.5
X83.82Y-66.04
X83.82Y-68.58
X88.94Y-38.1
X91.44Y-38.1
X99.06Y-58.42
X99.06Y-60.96
X99.06Y-63.5
X99.06Y-66.04
X99.06Y-68.58
X99.06Y-71.12
X99.06Y-73.66
X99.06Y-81.28
X99.06Y-83.82
X99.06Y-86.36
X99.06Y-88.9
X99.06Y-91.44
X99.06Y-93.98
X99.06Y-96.52
X99.06Y-99.06
X99.06Y-101.6
X99.06Y-104.14
X100.37Y-53.34
X100.41Y-109.22
X105.37Y-53.34
X105.41Y-45.72
X105.41Y-109.22
X106.68Y-58.42
X106.68Y-60.96
X106.68Y-63.5
X106.68Y-66.04
X106.68Y-68.58
X106.68Y-71.12
X106.68Y-73.66
X106.68Y-81.28
X106.68Y-83.82
X106.68Y-86.36
X106.68Y-88.9
X106.68Y-91.44
X106.68Y-93.98
X106.68Y-96.52
X106.68Y-99.06
X106.68Y-101.6
X106.68Y-104.14
X113.03Y-45.72
X114.3Y-81.28
X114.3Y-83.82
X114.3Y-86.36
X114.3Y-88.9
X114.3Y-91.44
X114.3Y-93.98
X114.3Y-96.52
X114.3Y-99.06
X114.3Y-101.6
X114.3Y-104.14
X114.38Y-55.8
X114.38Y-58.34
X114.38Y-60.88
X114.38Y-63.42
X114.38Y-65.96
X114.38Y-68.5
X114.38Y-71.04
X114.38Y-73.58
X115.57Y-50.8
X115.65Y-109.22
X119.38Y-123.27
X119.38Y-128.27
X120.57Y-50.8
X120.65Y-109.22
X121.92Y-81.28
X121.92Y-83.82
X121.92Y-86.36
X121.92Y-88.9
X121.92Y-91.44
X121.92Y-93.98
X121.92Y-96.52
X121.92Y-99.06
X121.92Y-101.6
X121.92Y-104.14
X122.0Y-55.8
X122.0Y-58.34
X122.0Y-60.88
X122.0Y-63.42
X122.0Y-65.96
X122.0Y-68.5
X122.0Y-71.04
X122.0Y-73.58
X123.19Y-30.48
X129.54Y-58.42
X129.54Y-60.96
X129.54Y-63.5
X129.54Y-66.04
X129.54Y-68.58
X129.54Y-71.12
X129.54Y-73.66
X129.54Y-81.28
X129.54Y-83.82
X129.54Y-86.36
X129.54Y-88.9
X129.54Y-91.44
X129.54Y-93.98
X129.54Y-96.52
X129.54Y-99.06
X129.54Y-101.6
X129.54Y-104.14
X130.81Y-30.48
X130.81Y-53.34
X130.89Y-109.22
X134.62Y-120.015
X134.62Y-127.635
X135.81Y-53.34
X135.89Y-109.22
X137.16Y-58.42
X137.16Y-60.96
X137.16Y-63.5
X137.16Y-66.04
X137.16Y-68.58
X137.16Y-71.12
X137.16Y-73.66
X137.16Y-81.28
X137.16Y-83.82
X137.16Y-86.36
X137.16Y-88.9
X137.16Y-91.44
X137.16Y-93.98
X137.16Y-96.52
X137.16Y-99.06
X137.16Y-101.6
X137.16Y-104.14
X137.2Y-40.64
X139.7Y-40.64
X142.24Y-120.69
X142.24Y-125.69
X147.32Y-63.5
X147.32Y-66.04
X147.32Y-68.58
X147.32Y-71.12
X147.32Y-73.66
X147.32Y-76.2
X147.32Y-78.74
X147.32Y-81.28
X147.32Y-83.82
X147.32Y-86.36
X147.32Y-88.9
X147.32Y-91.44
X147.32Y-93.98
X147.32Y-96.52
X147.32Y-99.06
X147.32Y-101.6
X147.32Y-104.14
X147.32Y-106.68
X147.32Y-109.22
X147.32Y-111.76
X147.32Y-119.38
X147.32Y-127.0
X148.717Y-35.56
X148.717Y-38.1
X148.717Y-40.64
X148.717Y-43.18
X148.717Y-45.72
X148.717Y-48.26
X151.257Y-33.02
X151.257Y-35.56
X151.257Y-38.1
X151.257Y-40.64
X151.257Y-43.18
X151.257Y-45.72
X151.257Y-48.26
X151.257Y-50.8
X152.4Y-58.42
X153.797Y-33.02
X153.797Y-35.56
X153.797Y-48.26
X153.797Y-50.8
X155.274Y-27.94
X156.337Y-33.02
X156.337Y-35.56
X156.337Y-48.26
X156.337Y-50.8
X157.4Y-58.42
X158.877Y-33.02
X158.877Y-35.56
X158.877Y-48.26
X158.877Y-50.8
X160.274Y-27.94
X161.417Y-33.02
X161.417Y-35.56
X161.417Y-48.26
X161.417Y-50.8
X162.56Y-63.5
X162.56Y-66.04
X162.56Y-68.58
X162.56Y-71.12
X162.56Y-73.66
X162.56Y-76.2
X162.56Y-78.74
X162.56Y-81.28
X162.56Y-83.82
X162.56Y-86.36
X162.56Y-88.9
X162.56Y-91.44
X162.56Y-93.98
X162.56Y-96.52
X162.56Y-99.06
X162.56Y-101.6
X162.56Y-104.14
X162.56Y-106.68
X162.56Y-109.22
X162.56Y-111.76
X162.56Y-119.38
X162.56Y-127.0
X163.957Y-33.02
X163.957Y-35.56
X163.957Y-38.1
X163.957Y-40.64
X163.957Y-43.18
X163.957Y-45.72
X163.957Y-48.26
X163.957Y-50.8
X166.497Y-35.56
X166.497Y-38.1
X166.497Y-40.64
X166.497Y-43.18
X166.497Y-45.72
X166.497Y-48.26
X170.18Y-66.04
X170.18Y-68.58
X170.18Y-71.12
X170.18Y-73.66
X170.18Y-76.2
X170.18Y-78.74
X170.18Y-81.28
X170.18Y-83.82
X170.18Y-86.36
X170.18Y-88.9
X170.18Y-96.52
X170.18Y-99.06
X170.18Y-101.6
X170.18Y-104.14
X170.18Y-106.68
X170.18Y-109.22
X170.18Y-111.76
X170.18Y-114.3
X170.18Y-116.84
X170.18Y-119.38
X171.45Y-61.595
X171.53Y-124.46
X176.45Y-61.595
X176.53Y-124.46
X177.165Y-41.91
X177.165Y-46.91
X177.8Y-66.04
X177.8Y-68.58
X177.8Y-71.12
X177.8Y-73.66
X177.8Y-76.2
X177.8Y-78.74
X177.8Y-81.28
X177.8Y-83.82
X177.8Y-86.36
X177.8Y-88.9
X177.8Y-96.52
X177.8Y-99.06
X177.8Y-101.6
X177.8Y-104.14
X177.8Y-106.68
X177.8Y-109.22
X177.8Y-111.76
X177.8Y-114.3
X177.8Y-116.84
X177.8Y-119.38
X180.38Y-54.61
X182.245Y-40.64
X182.245Y-48.26
X182.88Y-54.61
X184.785Y-40.64
X184.785Y-48.26
X185.42Y-115.57
X186.73Y-54.61
X187.325Y-40.64
X187.325Y-48.26
X187.96Y-115.57
X187.96Y-120.65
X187.96Y-128.27
X188.087Y-69.342
X188.087Y-71.882
X188.087Y-74.422
X188.087Y-76.962
X188.087Y-79.502
X188.087Y-82.042
X188.087Y-84.582
X188.087Y-87.122
X188.087Y-89.662
X188.087Y-92.202
X188.087Y-94.742
X188.087Y-97.282
X188.087Y-99.822
X188.087Y-102.362
X188.087Y-104.902
X188.087Y-107.442
X189.23Y-54.61
X189.865Y-40.64
X189.865Y-48.26
X190.5Y-115.57
X190.5Y-120.65
X190.5Y-128.27
X192.405Y-40.64
X192.405Y-48.26
X193.04Y-115.57
X193.04Y-120.65
X193.04Y-128.27
X193.08Y-54.61
X194.945Y-40.64
X194.945Y-48.26
X195.58Y-54.61
X195.58Y-115.57
X195.58Y-120.65
X195.58Y-128.27
X197.485Y-40.64
X197.485Y-48.26
X198.12Y-115.57
X198.12Y-120.65
X198.12Y-128.27
X199.43Y-54.61
X200.025Y-40.64
X200.025Y-48.26
X200.66Y-115.57
X200.66Y-120.65
X200.66Y-128.27
X201.93Y-54.61
X203.2Y-115.57
X203.2Y-120.65
X203.2Y-128.27
X203.327Y-69.342
X203.327Y-71.882
X203.327Y-74.422
X203.327Y-76.962
X203.327Y-79.502
X203.327Y-82.042
X203.327Y-84.582
X203.327Y-87.122
X203.327Y-89.662
X203.327Y-92.202
X203.327Y-94.742
X203.327Y-97.282
X203.327Y-99.822
X203.327Y-102.362
X203.327Y-104.902
X203.327Y-107.442
X205.74Y-115.57
X205.74Y-120.65
X205.74Y-128.27
X206.502Y-69.342
X206.502Y-74.342
X222.544Y-62.992
X227.544Y-62.992
T4
X88.9Y-49.53
X88.9Y-57.15
X88.9Y-64.77
X88.9Y-72.39
X88.9Y-80.01
X88.9Y-87.63
X88.9Y-95.25
X88.9Y-102.87
X91.44Y-49.53
X91.44Y-57.15
X91.44Y-64.77
X91.44Y-72.39
X91.44Y-80.01
X91.44Y-87.63
X91.44Y-95.25
X91.44Y-102.87
X137.16Y-30.48
X139.7Y-30.48
T5
X105.43Y-37.597
X105.43Y-39.597
X107.93Y-37.597
X107.93Y-39.597
T6
X184.76Y-33.193
X186.145Y-30.353
X187.53Y-33.193
X188.915Y-30.353
X190.3Y-33.193
X191.685Y-30.353
X193.07Y-33.193
X194.455Y-30.353
X195.84Y-33.193
X211.272Y-42.164
X211.272Y-44.704
X211.272Y-47.244
X217.643Y-76.844
X217.643Y-79.384
X217.643Y-81.924
X217.643Y-84.464
X217.643Y-87.004
X217.643Y-89.544
X217.643Y-92.084
X217.643Y-94.624
X217.643Y-97.164
X217.643Y-99.704
X217.643Y-102.244
X217.643Y-104.784
X217.643Y-107.324
X217.643Y-109.864
X217.643Y-112.404
X217.643Y-114.944
X219.419Y-42.149
X219.419Y-44.689
X219.419Y-47.229
X227.565Y-42.149
X227.565Y-44.689
X227.565Y-47.229
X232.883Y-76.844
X232.883Y-79.384
X232.883Y-81.924
X232.883Y-84.464
X232.883Y-87.004
X232.883Y-89.544
X232.883Y-92.084
X232.883Y-94.624
X232.883Y-97.164
X232.883Y-99.704
X232.883Y-102.244
X232.883Y-104.784
X232.883Y-107.324
X232.883Y-109.864
X232.883Y-112.404
X232.883Y-114.944
X235.712Y-42.164
X235.712Y-44.704
X235.712Y-47.244
T7
X102.72Y-123.15
X102.72Y-127.65
X109.22Y-123.15
X109.22Y-127.65
X123.04Y-123.135
X123.04Y-127.635
X129.54Y-123.135
X129.54Y-127.635
T8
X100.66Y-34.887
X112.7Y-34.887
T9
X177.8Y-30.353
X202.8Y-30.353
T6
G00X128.0Y-36.72
M15
G01X126.0Y-36.72
M16
G05
G00X128.0Y-41.22
M15
G01X126.0Y-41.22
M16
G05
G00X128.0Y-45.72
M15
G01X126.0Y-45.72
M16
G05
M30
