M48
; DRILL file {KiCad 9.0.2} date 2025-06-05T18:46:39+0200
; FORMAT={-:-/ absolute / metric / decimal}
; #@! TF.CreationDate,2025-06-05T18:46:39+02:00
; #@! TF.GenerationSoftware,Kicad,Pcbnew,9.0.2
; #@! TF.FileFunction,Plated,1,2,PTH
FMAT,2
METRIC
; #@! TA.AperFunction,Plated,PTH,ViaDrill
T1C0.300
; #@! TA.AperFunction,Plated,PTH,ComponentDrill
T2C0.750
; #@! TA.AperFunction,Plated,PTH,ComponentDrill
T3C0.800
; #@! TA.AperFunction,Plated,PTH,ComponentDrill
T4C0.900
; #@! TA.AperFunction,Plated,PTH,ComponentDrill
T5C0.920
; #@! TA.AperFunction,Plated,PTH,ComponentDrill
T6C1.000
; #@! TA.AperFunction,Plated,PTH,ComponentDrill
T7C1.100
; #@! TA.AperFunction,Plated,PTH,ComponentDrill
T8C2.330
; #@! TA.AperFunction,Plated,PTH,ComponentDrill
T9C3.200
%
G90
G05
T1
X46.836Y-79.449
X53.077Y-104.622
X55.88Y-67.937
X57.593Y-85.904
X60.575Y-73.3
X61.384Y-73.26
X61.485Y-78.522
X63.158Y-78.499
X66.188Y-105.864
X66.803Y-85.11
X67.035Y-90.17
X68.221Y-73.534
X70.173Y-90.398
X70.805Y-76.125
X71.152Y-68.684
X71.164Y-70.069
X71.473Y-94.721
X72.611Y-72.001
X72.728Y-72.921
X73.604Y-76.704
X74.416Y-147.433
X75.632Y-120.43
X76.322Y-111.69
X76.725Y-148.854
X78.47Y-87.783
X79.292Y-47.89
X79.937Y-36.832
X81.559Y-86.325
X82.138Y-37.338
X83.521Y-34.427
X83.977Y-35.938
X84.073Y-133.231
X84.908Y-133.209
X88.354Y-131.766
X89.131Y-132.341
X89.744Y-84.252
X89.745Y-91.355
X89.84Y-131.616
X90.209Y-68.558
X90.928Y-66.468
X91.144Y-68.61
X91.154Y-73.41
X91.42Y-131.955
X91.776Y-66.539
X91.995Y-136.448
X93.179Y-74.817
X93.635Y-46.622
X93.867Y-68.621
X98.256Y-74.576
X100.144Y-105.021
X104.495Y-121.908
X113.542Y-126.642
X114.126Y-52.409
X114.465Y-68.476
X115.93Y-128.209
X116.459Y-90.169
X116.688Y-71.801
X117.102Y-76.005
X117.502Y-78.579
X119.256Y-86.632
X119.516Y-75.208
X120.43Y-102.402
X120.521Y-69.226
X121.521Y-104.395
X124.644Y-69.577
X125.239Y-106.022
X127.576Y-89.063
X137.385Y-102.064
X138.396Y-91.61
X138.456Y-104.96
X138.665Y-102.519
T2
X38.608Y-147.32
X39.878Y-146.05
X41.148Y-147.32
T3
X29.21Y-93.98
X29.21Y-96.52
X29.21Y-99.06
X29.21Y-101.6
X29.21Y-104.14
X29.21Y-106.68
X29.21Y-109.22
X29.21Y-111.76
X29.21Y-114.3
X35.56Y-49.53
X43.18Y-49.53
X47.03Y-33.02
X47.03Y-43.18
X48.26Y-87.63
X48.26Y-90.17
X48.26Y-92.71
X48.26Y-95.25
X48.26Y-97.79
X48.26Y-100.33
X48.26Y-102.87
X48.26Y-110.49
X48.26Y-113.03
X48.26Y-115.57
X48.26Y-118.11
X48.26Y-120.65
X48.26Y-123.19
X48.26Y-125.73
X48.26Y-128.27
X48.26Y-130.81
X48.26Y-133.35
X49.53Y-33.02
X49.53Y-43.18
X49.61Y-83.82
X49.61Y-137.16
X54.61Y-57.15
X54.61Y-59.69
X54.61Y-62.23
X54.61Y-64.77
X54.61Y-67.31
X54.61Y-69.85
X54.61Y-83.82
X54.61Y-137.16
X55.88Y-87.63
X55.88Y-90.17
X55.88Y-92.71
X55.88Y-95.25
X55.88Y-97.79
X55.88Y-100.33
X55.88Y-102.87
X55.88Y-110.49
X55.88Y-113.03
X55.88Y-115.57
X55.88Y-118.11
X55.88Y-120.65
X55.88Y-123.19
X55.88Y-125.73
X55.88Y-128.27
X55.88Y-130.81
X55.88Y-133.35
X57.15Y-54.61
X57.15Y-57.15
X57.15Y-59.69
X57.15Y-62.23
X57.15Y-64.77
X57.15Y-67.31
X57.15Y-69.85
X57.15Y-72.39
X57.15Y-144.809
X57.15Y-149.809
X59.69Y-54.61
X59.69Y-57.15
X59.69Y-69.85
X59.69Y-72.39
X60.96Y-85.09
X60.96Y-87.63
X60.96Y-90.17
X60.96Y-92.71
X60.96Y-95.25
X60.96Y-97.79
X60.96Y-100.33
X60.96Y-102.87
X60.96Y-110.49
X60.96Y-113.03
X60.96Y-115.57
X60.96Y-118.11
X60.96Y-120.65
X60.96Y-123.19
X60.96Y-125.73
X60.96Y-128.27
X60.96Y-130.81
X60.96Y-133.35
X62.23Y-48.26
X62.23Y-54.61
X62.23Y-57.15
X62.23Y-69.85
X62.23Y-72.39
X62.31Y-81.28
X62.31Y-137.16
X64.77Y-54.61
X64.77Y-57.15
X64.77Y-69.85
X64.77Y-72.39
X67.31Y-54.61
X67.31Y-57.15
X67.31Y-69.85
X67.31Y-72.39
X67.31Y-81.28
X67.31Y-137.16
X68.58Y-85.09
X68.58Y-87.63
X68.58Y-90.17
X68.58Y-92.71
X68.58Y-95.25
X68.58Y-97.79
X68.58Y-100.33
X68.58Y-102.87
X68.58Y-110.49
X68.58Y-113.03
X68.58Y-115.57
X68.58Y-118.11
X68.58Y-120.65
X68.58Y-123.19
X68.58Y-125.73
X68.58Y-128.27
X68.58Y-130.81
X68.58Y-133.35
X69.85Y-48.26
X69.85Y-54.61
X69.85Y-57.15
X69.85Y-59.69
X69.85Y-62.23
X69.85Y-64.77
X69.85Y-67.31
X69.85Y-69.85
X69.85Y-72.39
X72.39Y-57.15
X72.39Y-59.69
X72.39Y-62.23
X72.39Y-64.77
X72.39Y-67.31
X72.39Y-69.85
X72.39Y-142.93
X72.39Y-150.55
X73.66Y-87.63
X73.66Y-90.17
X73.66Y-92.71
X73.66Y-95.25
X73.66Y-97.79
X73.66Y-100.33
X73.66Y-102.87
X73.66Y-110.49
X73.66Y-113.03
X73.66Y-115.57
X73.66Y-118.11
X73.66Y-120.65
X73.66Y-123.19
X73.66Y-125.73
X73.66Y-128.27
X73.66Y-130.81
X73.66Y-133.35
X74.97Y-83.82
X75.01Y-137.16
X77.47Y-60.96
X77.47Y-65.96
X79.97Y-83.82
X80.01Y-137.16
X80.01Y-142.335
X80.01Y-147.335
X80.605Y-43.18
X80.605Y-48.18
X81.28Y-87.63
X81.28Y-90.17
X81.28Y-92.71
X81.28Y-95.25
X81.28Y-97.79
X81.28Y-100.33
X81.28Y-102.87
X81.28Y-110.49
X81.28Y-113.03
X81.28Y-115.57
X81.28Y-118.11
X81.28Y-120.65
X81.28Y-123.19
X81.28Y-125.73
X81.28Y-128.27
X81.28Y-130.81
X81.28Y-133.35
X83.82Y-55.88
X85.09Y-140.97
X85.09Y-148.59
X85.685Y-41.91
X85.685Y-49.53
X86.32Y-55.88
X86.36Y-85.09
X86.36Y-87.63
X86.36Y-90.17
X86.36Y-92.71
X86.36Y-95.25
X86.36Y-97.79
X86.36Y-100.33
X86.36Y-102.87
X86.36Y-105.41
X86.36Y-107.95
X86.36Y-110.49
X86.36Y-113.03
X86.36Y-115.57
X86.36Y-118.11
X86.36Y-120.65
X86.36Y-123.19
X86.36Y-125.73
X86.36Y-128.27
X86.36Y-130.81
X86.36Y-133.35
X88.225Y-41.91
X88.225Y-49.53
X90.17Y-55.88
X90.765Y-41.91
X90.765Y-49.53
X91.52Y-81.28
X92.67Y-55.88
X93.305Y-41.91
X93.305Y-49.53
X95.845Y-41.91
X95.845Y-49.53
X96.52Y-55.88
X96.52Y-81.28
X98.385Y-41.91
X98.385Y-49.53
X99.02Y-55.88
X100.33Y-140.97
X100.33Y-148.59
X100.925Y-41.91
X100.925Y-49.53
X101.6Y-85.09
X101.6Y-87.63
X101.6Y-90.17
X101.6Y-92.71
X101.6Y-95.25
X101.6Y-97.79
X101.6Y-100.33
X101.6Y-102.87
X101.6Y-105.41
X101.6Y-107.95
X101.6Y-110.49
X101.6Y-113.03
X101.6Y-115.57
X101.6Y-118.11
X101.6Y-120.65
X101.6Y-123.19
X101.6Y-125.73
X101.6Y-128.27
X101.6Y-130.81
X101.6Y-133.35
X102.87Y-55.88
X103.465Y-41.91
X103.465Y-49.53
X105.37Y-55.88
X106.68Y-99.06
X106.68Y-101.6
X106.68Y-104.14
X106.68Y-106.68
X106.68Y-109.22
X106.68Y-111.76
X106.68Y-114.3
X106.68Y-116.84
X106.68Y-119.38
X106.68Y-121.92
X108.03Y-95.25
X109.22Y-135.89
X111.76Y-135.89
X111.76Y-140.97
X111.76Y-148.59
X113.03Y-95.25
X114.3Y-99.06
X114.3Y-101.6
X114.3Y-104.14
X114.3Y-106.68
X114.3Y-109.22
X114.3Y-111.76
X114.3Y-114.3
X114.3Y-116.84
X114.3Y-119.38
X114.3Y-121.92
X114.3Y-135.89
X114.3Y-140.97
X114.3Y-148.59
X116.84Y-135.89
X116.84Y-140.97
X116.84Y-148.59
X119.38Y-99.06
X119.38Y-101.6
X119.38Y-104.14
X119.38Y-106.68
X119.38Y-109.22
X119.38Y-111.76
X119.38Y-114.3
X119.38Y-116.84
X119.38Y-119.38
X119.38Y-121.92
X119.38Y-135.89
X119.38Y-140.97
X119.38Y-148.59
X120.73Y-95.25
X121.92Y-135.89
X121.92Y-140.97
X121.92Y-148.59
X124.46Y-135.89
X124.46Y-140.97
X124.46Y-148.59
X125.73Y-95.25
X127.0Y-99.06
X127.0Y-101.6
X127.0Y-104.14
X127.0Y-106.68
X127.0Y-109.22
X127.0Y-111.76
X127.0Y-114.3
X127.0Y-116.84
X127.0Y-119.38
X127.0Y-121.92
X127.0Y-135.89
X127.0Y-140.97
X127.0Y-148.59
X129.54Y-135.89
X129.54Y-140.97
X129.54Y-148.59
X132.08Y-92.71
X132.08Y-95.25
X132.08Y-97.79
X132.08Y-100.33
X132.08Y-102.87
X132.08Y-105.41
X132.08Y-107.95
X132.08Y-110.49
X132.08Y-113.03
X132.08Y-115.57
X132.08Y-118.11
X132.08Y-120.65
X132.08Y-123.19
X132.08Y-125.73
X132.08Y-128.27
X132.08Y-130.81
X137.2Y-88.9
X142.2Y-88.9
X143.51Y-41.91
X143.51Y-46.91
X147.32Y-92.71
X147.32Y-95.25
X147.32Y-97.79
X147.32Y-100.33
X147.32Y-102.87
X147.32Y-105.41
X147.32Y-107.95
X147.32Y-110.49
X147.32Y-113.03
X147.32Y-115.57
X147.32Y-118.11
X147.32Y-120.65
X147.32Y-123.19
X147.32Y-125.73
X147.32Y-128.27
X147.32Y-130.81
T4
X35.56Y-40.64
X36.83Y-78.74
X36.83Y-86.36
X36.83Y-93.98
X36.83Y-101.6
X36.83Y-109.22
X36.83Y-116.84
X36.83Y-124.46
X36.83Y-132.08
X38.1Y-40.64
X39.37Y-78.74
X39.37Y-86.36
X39.37Y-93.98
X39.37Y-101.6
X39.37Y-109.22
X39.37Y-116.84
X39.37Y-124.46
X39.37Y-132.08
T5
X62.25Y-40.137
X62.25Y-42.137
X64.75Y-40.137
X64.75Y-42.137
T6
X88.44Y-35.155
X89.825Y-32.315
X91.21Y-35.155
X92.595Y-32.315
X93.98Y-35.155
X95.365Y-32.315
X96.75Y-35.155
X98.135Y-32.315
X99.52Y-35.155
X121.92Y-39.37
X121.92Y-41.91
X121.92Y-44.45
X121.92Y-46.99
X121.92Y-49.53
X121.92Y-52.07
X121.92Y-54.61
X121.92Y-57.15
X121.92Y-59.69
X121.92Y-62.23
X121.92Y-64.77
X121.92Y-67.31
X121.92Y-69.85
X121.92Y-72.39
X121.92Y-74.93
X121.92Y-77.47
X137.16Y-39.37
X137.16Y-41.91
X137.16Y-44.45
X137.16Y-46.99
X137.16Y-49.53
X137.16Y-52.07
X137.16Y-54.61
X137.16Y-57.15
X137.16Y-59.69
X137.16Y-62.23
X137.16Y-64.77
X137.16Y-67.31
X137.16Y-69.85
X137.16Y-72.39
X137.16Y-74.93
X137.16Y-77.47
T7
X45.57Y-144.634
X45.57Y-149.134
X52.07Y-144.634
X52.07Y-149.134
X60.81Y-144.674
X60.81Y-149.174
X67.31Y-144.674
X67.31Y-149.174
T8
X57.48Y-37.427
X69.52Y-37.427
T9
X81.48Y-32.315
X106.48Y-32.315
T6
G00X37.83Y-58.31
M15
G01X35.83Y-58.31
M16
G05
G00X37.83Y-62.81
M15
G01X35.83Y-62.81
M16
G05
G00X37.83Y-67.31
M15
G01X35.83Y-67.31
M16
G05
M30
