M48
; DRILL file KiCad 10.0.3 date 2026-06-28T13:36:58
; FORMAT={-:-/ absolute / metric / decimal}
; #@! TF.CreationDate,2026-06-28T13:36:58+02:00
; #@! TF.GenerationSoftware,Kicad,Pcbnew,10.0.3
; #@! TF.FileFunction,Plated,1,2,PTH
FMAT,2
METRIC
; #@! TA.AperFunction,Plated,PTH,ViaDrill
T1C0.300
; #@! TA.AperFunction,Plated,PTH,ComponentDrill
T2C0.800
; #@! TA.AperFunction,Plated,PTH,ComponentDrill
T3C0.900
; #@! TA.AperFunction,Plated,PTH,ComponentDrill
T4C0.920
; #@! TA.AperFunction,Plated,PTH,ComponentDrill
T5C1.000
; #@! TA.AperFunction,Plated,PTH,ComponentDrill
T6C1.100
; #@! TA.AperFunction,Plated,PTH,ComponentDrill
T7C2.200
; #@! TA.AperFunction,Plated,PTH,ComponentDrill
T8C2.330
; #@! TA.AperFunction,Plated,PTH,ComponentDrill
T9C3.200
%
G90
G05
T1
X48.906Y-82.653
X50.484Y-125.793
X50.888Y-123.676
X51.3Y-125.76
X51.319Y-96.661
X62.791Y-95.956
X65.932Y-92.737
X69.685Y-93.709
X69.747Y-72.75
X70.285Y-95.657
X70.584Y-108.127
X79.164Y-62.816
X90.965Y-130.445
X91.316Y-101.646
X92.097Y-128.499
X93.345Y-76.835
X93.91Y-124.866
X93.98Y-77.357
X94.219Y-112.643
X94.824Y-113.293
X95.902Y-68.395
X95.979Y-122.274
X96.631Y-112.086
X97.601Y-68.33
X100.415Y-116.242
X100.63Y-66.496
X102.654Y-65.335
X105.606Y-111.959
X108.671Y-137.1
X111.069Y-106.235
X111.651Y-125.524
X112.698Y-107.864
X112.818Y-97.092
X115.92Y-52.081
X116.568Y-119.375
X118.621Y-93.21
X118.865Y-49.441
X119.858Y-47.02
X125.385Y-82.823
X127.022Y-82.924
X127.822Y-82.833
X128.57Y-127.753
X134.315Y-92.063
X136.115Y-92.801
X137.137Y-99.21
X139.326Y-40.56
X139.394Y-79.596
X140.561Y-90.222
X141.252Y-79.976
X142.047Y-88.738
X143.544Y-87.214
X148.931Y-49.517
X152.884Y-44.438
X155.158Y-107.803
T2
X29.21Y-93.98
X29.21Y-96.52
X29.21Y-99.06
X29.21Y-101.6
X29.21Y-104.14
X29.21Y-106.68
X29.21Y-109.22
X29.21Y-111.76
X29.21Y-114.3
X33.695Y-50.8
X36.195Y-50.8
X41.95Y-50.8
X44.45Y-50.8
X48.26Y-87.63
X48.26Y-90.17
X48.26Y-92.71
X48.26Y-95.25
X48.26Y-97.79
X48.26Y-100.33
X48.26Y-102.87
X48.26Y-110.49
X48.26Y-113.03
X48.26Y-115.57
X48.26Y-118.11
X48.26Y-120.65
X48.26Y-123.19
X48.26Y-125.73
X48.26Y-128.27
X48.26Y-130.81
X48.26Y-133.35
X49.61Y-83.82
X49.61Y-137.16
X54.61Y-46.355
X54.61Y-55.65
X54.61Y-58.19
X54.61Y-60.73
X54.61Y-63.27
X54.61Y-65.81
X54.61Y-68.35
X54.61Y-83.82
X54.61Y-137.16
X55.88Y-87.63
X55.88Y-90.17
X55.88Y-92.71
X55.88Y-95.25
X55.88Y-97.79
X55.88Y-100.33
X55.88Y-102.87
X55.88Y-110.49
X55.88Y-113.03
X55.88Y-115.57
X55.88Y-118.11
X55.88Y-120.65
X55.88Y-123.19
X55.88Y-125.73
X55.88Y-128.27
X55.88Y-130.81
X55.88Y-133.35
X57.15Y-53.11
X57.15Y-55.65
X57.15Y-58.19
X57.15Y-60.73
X57.15Y-63.27
X57.15Y-65.81
X57.15Y-68.35
X57.15Y-70.89
X59.055Y-142.875
X59.055Y-150.495
X59.69Y-53.11
X59.69Y-55.65
X59.69Y-68.35
X59.69Y-70.89
X60.96Y-85.09
X60.96Y-87.63
X60.96Y-90.17
X60.96Y-92.71
X60.96Y-95.25
X60.96Y-97.79
X60.96Y-100.33
X60.96Y-102.87
X60.96Y-110.49
X60.96Y-113.03
X60.96Y-115.57
X60.96Y-118.11
X60.96Y-120.65
X60.96Y-123.19
X60.96Y-125.73
X60.96Y-128.27
X60.96Y-130.81
X60.96Y-133.35
X62.23Y-46.355
X62.23Y-53.11
X62.23Y-55.65
X62.23Y-68.35
X62.23Y-70.89
X62.31Y-81.28
X62.31Y-137.16
X64.77Y-53.11
X64.77Y-55.65
X64.77Y-68.35
X64.77Y-70.89
X67.31Y-53.11
X67.31Y-55.65
X67.31Y-68.35
X67.31Y-70.89
X67.31Y-81.28
X67.31Y-137.16
X68.58Y-85.09
X68.58Y-87.63
X68.58Y-90.17
X68.58Y-92.71
X68.58Y-95.25
X68.58Y-97.79
X68.58Y-100.33
X68.58Y-102.87
X68.58Y-110.49
X68.58Y-113.03
X68.58Y-115.57
X68.58Y-118.11
X68.58Y-120.65
X68.58Y-123.19
X68.58Y-125.73
X68.58Y-128.27
X68.58Y-130.81
X68.58Y-133.35
X69.85Y-53.11
X69.85Y-55.65
X69.85Y-58.19
X69.85Y-60.73
X69.85Y-63.27
X69.85Y-65.81
X69.85Y-68.35
X69.85Y-70.89
X72.39Y-55.65
X72.39Y-58.19
X72.39Y-60.73
X72.39Y-63.27
X72.39Y-65.81
X72.39Y-68.35
X73.66Y-87.63
X73.66Y-90.17
X73.66Y-92.71
X73.66Y-95.25
X73.66Y-97.79
X73.66Y-100.33
X73.66Y-102.87
X73.66Y-110.49
X73.66Y-113.03
X73.66Y-115.57
X73.66Y-118.11
X73.66Y-120.65
X73.66Y-123.19
X73.66Y-125.73
X73.66Y-128.27
X73.66Y-130.81
X73.66Y-133.35
X74.97Y-83.82
X75.01Y-137.16
X77.47Y-60.96
X77.47Y-65.96
X79.97Y-83.82
X80.01Y-137.16
X80.01Y-142.335
X80.01Y-147.335
X80.605Y-43.18
X80.605Y-48.18
X81.28Y-87.63
X81.28Y-90.17
X81.28Y-92.71
X81.28Y-95.25
X81.28Y-97.79
X81.28Y-100.33
X81.28Y-102.87
X81.28Y-110.49
X81.28Y-113.03
X81.28Y-115.57
X81.28Y-118.11
X81.28Y-120.65
X81.28Y-123.19
X81.28Y-125.73
X81.28Y-128.27
X81.28Y-130.81
X81.28Y-133.35
X83.82Y-55.88
X85.09Y-140.97
X85.09Y-148.59
X85.685Y-41.91
X85.685Y-49.53
X86.32Y-55.88
X86.36Y-85.09
X86.36Y-87.63
X86.36Y-90.17
X86.36Y-92.71
X86.36Y-95.25
X86.36Y-97.79
X86.36Y-100.33
X86.36Y-102.87
X86.36Y-105.41
X86.36Y-107.95
X86.36Y-110.49
X86.36Y-113.03
X86.36Y-115.57
X86.36Y-118.11
X86.36Y-120.65
X86.36Y-123.19
X86.36Y-125.73
X86.36Y-128.27
X86.36Y-130.81
X86.36Y-133.35
X88.225Y-41.91
X88.225Y-49.53
X90.17Y-55.88
X90.765Y-41.91
X90.765Y-49.53
X91.5Y-81.0
X92.67Y-55.88
X93.305Y-41.91
X93.305Y-49.53
X95.845Y-41.91
X95.845Y-49.53
X96.5Y-81.0
X96.52Y-55.88
X98.385Y-41.91
X98.385Y-49.53
X99.02Y-55.88
X100.33Y-140.97
X100.33Y-148.59
X100.925Y-41.91
X100.925Y-49.53
X101.6Y-85.09
X101.6Y-87.63
X101.6Y-90.17
X101.6Y-92.71
X101.6Y-95.25
X101.6Y-97.79
X101.6Y-100.33
X101.6Y-102.87
X101.6Y-105.41
X101.6Y-107.95
X101.6Y-110.49
X101.6Y-113.03
X101.6Y-115.57
X101.6Y-118.11
X101.6Y-120.65
X101.6Y-123.19
X101.6Y-125.73
X101.6Y-128.27
X101.6Y-130.81
X101.6Y-133.35
X102.87Y-55.88
X103.465Y-41.91
X103.465Y-49.53
X105.37Y-55.88
X116.84Y-144.86
X116.84Y-149.86
X119.285Y-120.765
X119.285Y-136.005
X121.825Y-120.765
X121.825Y-136.005
X121.92Y-43.05
X121.92Y-45.59
X121.92Y-48.13
X121.92Y-50.67
X121.92Y-53.21
X121.92Y-55.75
X121.92Y-58.29
X121.92Y-60.83
X121.92Y-63.37
X121.92Y-65.91
X123.23Y-38.605
X124.365Y-120.765
X124.365Y-136.005
X126.905Y-120.765
X126.905Y-136.005
X128.23Y-38.605
X129.445Y-120.765
X129.445Y-136.005
X129.54Y-43.05
X129.54Y-45.59
X129.54Y-48.13
X129.54Y-50.67
X129.54Y-53.21
X129.54Y-55.75
X129.54Y-58.29
X129.54Y-60.83
X129.54Y-63.37
X129.54Y-65.91
X130.81Y-142.24
X130.81Y-149.86
X131.985Y-120.765
X131.985Y-136.005
X134.525Y-120.765
X134.525Y-136.005
X137.065Y-120.765
X137.065Y-136.005
X137.16Y-43.05
X137.16Y-45.59
X137.16Y-48.13
X137.16Y-50.67
X137.16Y-53.21
X137.16Y-55.75
X137.16Y-58.29
X137.16Y-60.83
X137.16Y-63.37
X137.16Y-65.91
X138.43Y-144.86
X138.43Y-149.86
X138.47Y-38.605
X139.605Y-120.765
X139.605Y-136.005
X142.145Y-120.765
X142.145Y-136.005
X143.47Y-38.605
X144.685Y-120.765
X144.685Y-136.005
X144.78Y-43.05
X144.78Y-45.59
X144.78Y-48.13
X144.78Y-50.67
X144.78Y-53.21
X144.78Y-55.75
X144.78Y-58.29
X144.78Y-60.83
X144.78Y-63.37
X144.78Y-65.91
X147.225Y-120.765
X147.225Y-136.005
X149.225Y-72.39
X149.765Y-120.765
X149.765Y-136.005
X151.71Y-50.8
X151.75Y-68.58
X152.305Y-120.765
X152.305Y-136.005
X152.4Y-142.24
X152.4Y-149.86
X154.21Y-38.1
X154.21Y-45.72
X154.21Y-57.25
X154.21Y-62.13
X154.845Y-120.765
X154.845Y-136.005
X156.71Y-50.8
X156.75Y-68.58
X156.845Y-72.39
X157.385Y-120.765
X157.385Y-136.005
X160.02Y-144.86
X160.02Y-149.86
X160.56Y-38.1
X160.56Y-40.64
X160.56Y-43.18
X160.56Y-45.72
X160.56Y-48.26
X160.56Y-50.8
X160.56Y-53.34
X160.56Y-55.88
X160.56Y-58.42
X160.56Y-60.96
X160.56Y-63.5
X160.56Y-66.04
X160.56Y-68.58
X160.56Y-71.12
X161.83Y-33.02
X162.305Y-126.005
X162.305Y-131.005
X166.83Y-33.02
X168.18Y-38.1
X168.18Y-40.64
X168.18Y-43.18
X168.18Y-45.72
X168.18Y-48.26
X168.18Y-50.8
X168.18Y-53.34
X168.18Y-55.88
X168.18Y-58.42
X168.18Y-60.96
X168.18Y-63.5
X168.18Y-66.04
X168.18Y-68.58
X168.18Y-71.12
X170.805Y-101.005
X170.805Y-106.005
X172.625Y-50.84
X172.625Y-55.84
X173.99Y-142.24
X173.99Y-149.86
T3
X36.83Y-78.74
X36.83Y-86.36
X36.83Y-93.98
X36.83Y-101.6
X36.83Y-109.22
X36.83Y-116.84
X36.83Y-124.46
X36.83Y-132.08
X39.37Y-78.74
X39.37Y-86.36
X39.37Y-93.98
X39.37Y-101.6
X39.37Y-109.22
X39.37Y-116.84
X39.37Y-124.46
X39.37Y-132.08
X61.37Y-35.385
X61.37Y-37.885
X63.47Y-35.385
X63.5Y-146.685
X66.04Y-146.685
X66.07Y-35.385
X68.17Y-35.385
X68.17Y-37.885
T4
X41.93Y-40.773
X41.93Y-42.773
X44.43Y-40.773
X44.43Y-42.773
T5
X88.44Y-35.155
X89.825Y-32.315
X91.21Y-35.155
X92.595Y-32.315
X93.98Y-35.155
X95.365Y-32.315
X96.75Y-35.155
X98.135Y-32.315
X99.52Y-35.155
X118.745Y-95.612
X118.745Y-110.852
X121.285Y-95.612
X121.285Y-110.852
X123.825Y-95.612
X123.825Y-110.852
X126.365Y-95.612
X126.365Y-110.852
X128.905Y-95.612
X128.905Y-110.852
X131.445Y-95.612
X131.445Y-110.852
X133.985Y-95.612
X133.985Y-110.852
X136.525Y-95.612
X136.525Y-110.852
X139.065Y-95.612
X139.065Y-110.852
X141.605Y-95.612
X141.605Y-110.852
X143.83Y-77.505
X143.83Y-80.045
X144.145Y-95.612
X144.145Y-110.852
X146.37Y-77.505
X146.37Y-80.045
X146.685Y-95.612
X146.685Y-110.852
X148.91Y-77.505
X148.91Y-80.045
X149.225Y-95.612
X149.225Y-110.852
X151.45Y-77.505
X151.45Y-80.045
X151.765Y-95.612
X151.765Y-110.852
X153.99Y-77.505
X153.99Y-80.045
X154.305Y-95.612
X154.305Y-110.852
X156.53Y-77.505
X156.53Y-80.045
X156.845Y-95.612
X156.845Y-110.852
X159.07Y-77.505
X159.07Y-80.045
X161.61Y-77.505
X161.61Y-80.045
X164.15Y-77.505
X164.15Y-80.045
X166.69Y-77.505
X166.69Y-80.045
X169.23Y-77.505
X169.23Y-80.045
X171.77Y-77.505
X171.77Y-80.045
X184.785Y-48.785
X184.785Y-51.325
X184.785Y-53.865
T6
X120.65Y-145.36
X120.65Y-149.86
X127.15Y-145.36
X127.15Y-149.86
X142.24Y-145.36
X142.24Y-149.86
X148.74Y-145.36
X148.74Y-149.86
X163.83Y-145.36
X163.83Y-149.86
X170.33Y-145.36
X170.33Y-149.86
T7
X58.02Y-32.385
X64.77Y-31.585
X71.52Y-32.385
T8
X37.16Y-38.062
X49.2Y-38.062
T9
X81.48Y-32.315
X106.48Y-32.315
T5
G00X39.1Y-60.596
M15
G01X37.1Y-60.596
M16
G05
G00X39.1Y-65.096
M15
G01X37.1Y-65.096
M16
G05
G00X39.1Y-69.596
M15
G01X37.1Y-69.596
M16
G05
M30
