%TF.GenerationSoftware,KiCad,Pcbnew,10.0.3*%
%TF.CreationDate,2026-06-28T13:36:56+02:00*%
%TF.ProjectId,morseboard-8088-vera,6d6f7273-6562-46f6-9172-642d38303838,rev?*%
%TF.SameCoordinates,Original*%
%TF.FileFunction,Soldermask,Top*%
%TF.FilePolarity,Negative*%
%FSLAX46Y46*%
G04 Gerber Fmt 4.6, Leading zero omitted, Abs format (unit mm)*
G04 Created by KiCad (PCBNEW 10.0.3) date 2026-06-28 13:36:56*
%MOMM*%
%LPD*%
G01*
G04 APERTURE LIST*
G04 Aperture macros list*
%AMRoundRect*
0 Rectangle with rounded corners*
0 $1 Rounding radius*
0 $2 $3 $4 $5 $6 $7 $8 $9 X,Y pos of 4 corners*
0 Add a 4 corners polygon primitive as box body*
4,1,4,$2,$3,$4,$5,$6,$7,$8,$9,$2,$3,0*
0 Add four circle primitives for the rounded corners*
1,1,$1+$1,$2,$3*
1,1,$1+$1,$4,$5*
1,1,$1+$1,$6,$7*
1,1,$1+$1,$8,$9*
0 Add four rect primitives between the rounded corners*
20,1,$1+$1,$2,$3,$4,$5,0*
20,1,$1+$1,$4,$5,$6,$7,0*
20,1,$1+$1,$6,$7,$8,$9,0*
20,1,$1+$1,$8,$9,$2,$3,0*%
G04 Aperture macros list end*
%ADD10RoundRect,0.250000X-0.550000X-0.550000X0.550000X-0.550000X0.550000X0.550000X-0.550000X0.550000X0*%
%ADD11C,1.600000*%
%ADD12R,1.800000X1.800000*%
%ADD13C,1.800000*%
%ADD14R,1.600000X1.600000*%
%ADD15RoundRect,0.250000X0.550000X0.550000X-0.550000X0.550000X-0.550000X-0.550000X0.550000X-0.550000X0*%
%ADD16C,3.000000*%
%ADD17R,1.700000X1.700000*%
%ADD18O,1.700000X1.700000*%
%ADD19C,2.000000*%
%ADD20R,1.422400X1.422400*%
%ADD21C,1.422400*%
%ADD22RoundRect,0.250000X0.550000X-0.550000X0.550000X0.550000X-0.550000X0.550000X-0.550000X-0.550000X0*%
%ADD23C,3.200000*%
%ADD24R,1.440000X2.000000*%
%ADD25O,1.440000X2.000000*%
%ADD26O,4.500000X2.500000*%
%ADD27C,4.000000*%
%ADD28C,1.778000*%
%ADD29C,3.810000*%
%ADD30C,1.700000*%
%ADD31C,3.500000*%
%ADD32RoundRect,0.250000X-0.550000X0.550000X-0.550000X-0.550000X0.550000X-0.550000X0.550000X0.550000X0*%
%ADD33C,1.500000*%
G04 APERTURE END LIST*
D10*
%TO.C,U12*%
X160560000Y-38100000D03*
D11*
X160560000Y-40640000D03*
X160560000Y-43180000D03*
X160560000Y-45720000D03*
X160560000Y-48260000D03*
X160560000Y-50800000D03*
X160560000Y-53340000D03*
X160560000Y-55880000D03*
X160560000Y-58420000D03*
X160560000Y-60960000D03*
X160560000Y-63500000D03*
X160560000Y-66040000D03*
X160560000Y-68580000D03*
X160560000Y-71120000D03*
X168180000Y-71120000D03*
X168180000Y-68580000D03*
X168180000Y-66040000D03*
X168180000Y-63500000D03*
X168180000Y-60960000D03*
X168180000Y-58420000D03*
X168180000Y-55880000D03*
X168180000Y-53340000D03*
X168180000Y-50800000D03*
X168180000Y-48260000D03*
X168180000Y-45720000D03*
X168180000Y-43180000D03*
X168180000Y-40640000D03*
X168180000Y-38100000D03*
%TD*%
D12*
%TO.C,D9*%
X63500000Y-146685000D03*
D13*
X66040000Y-146685000D03*
%TD*%
D14*
%TO.C,X1*%
X85090000Y-148590000D03*
D11*
X100330000Y-148590000D03*
X100330000Y-140970000D03*
X85090000Y-140970000D03*
%TD*%
D15*
%TO.C,U2*%
X81280000Y-133350000D03*
D11*
X81280000Y-130810000D03*
X81280000Y-128270000D03*
X81280000Y-125730000D03*
X81280000Y-123190000D03*
X81280000Y-120650000D03*
X81280000Y-118110000D03*
X81280000Y-115570000D03*
X81280000Y-113030000D03*
X81280000Y-110490000D03*
X73660000Y-110490000D03*
X73660000Y-113030000D03*
X73660000Y-115570000D03*
X73660000Y-118110000D03*
X73660000Y-120650000D03*
X73660000Y-123190000D03*
X73660000Y-125730000D03*
X73660000Y-128270000D03*
X73660000Y-130810000D03*
X73660000Y-133350000D03*
%TD*%
D15*
%TO.C,U4*%
X68580000Y-133350000D03*
D11*
X68580000Y-130810000D03*
X68580000Y-128270000D03*
X68580000Y-125730000D03*
X68580000Y-123190000D03*
X68580000Y-120650000D03*
X68580000Y-118110000D03*
X68580000Y-115570000D03*
X68580000Y-113030000D03*
X68580000Y-110490000D03*
X60960000Y-110490000D03*
X60960000Y-113030000D03*
X60960000Y-115570000D03*
X60960000Y-118110000D03*
X60960000Y-120650000D03*
X60960000Y-123190000D03*
X60960000Y-125730000D03*
X60960000Y-128270000D03*
X60960000Y-130810000D03*
X60960000Y-133350000D03*
%TD*%
D10*
%TO.C,C1*%
X41950000Y-50800000D03*
D11*
X44450000Y-50800000D03*
%TD*%
D10*
%TO.C,C18*%
X102870000Y-55880000D03*
D11*
X105370000Y-55880000D03*
%TD*%
%TO.C,C14*%
X160020000Y-149860000D03*
X160020000Y-144860000D03*
%TD*%
D16*
%TO.C,J3*%
X115370000Y-47045000D03*
X115379996Y-78490001D03*
X178324999Y-46990001D03*
X178379996Y-78544996D03*
D17*
X143830000Y-80045000D03*
D18*
X143830000Y-77505000D03*
X146370000Y-80045000D03*
X146370000Y-77505000D03*
X148910000Y-80045000D03*
X148910000Y-77505000D03*
X151450000Y-80045000D03*
X151450000Y-77505000D03*
X153990000Y-80045000D03*
X153990000Y-77505000D03*
X156530000Y-80045000D03*
X156530000Y-77505000D03*
X159070000Y-80045000D03*
X159070000Y-77505000D03*
X161610000Y-80045000D03*
X161610000Y-77505000D03*
X164150000Y-80045000D03*
X164150000Y-77505000D03*
X166690000Y-80045000D03*
X166690000Y-77505000D03*
X169230000Y-80045000D03*
X169230000Y-77505000D03*
X171770000Y-80045000D03*
X171770000Y-77505000D03*
%TD*%
D11*
%TO.C,C7*%
X96500000Y-81000000D03*
X91500000Y-81000000D03*
%TD*%
%TO.C,C10*%
X79970000Y-83820000D03*
X74970000Y-83820000D03*
%TD*%
D12*
%TO.C,D5*%
X36830000Y-109220000D03*
D13*
X39370000Y-109220000D03*
%TD*%
D11*
%TO.C,C22*%
X156710000Y-50800000D03*
X151710000Y-50800000D03*
%TD*%
D10*
%TO.C,U8*%
X48260000Y-87630000D03*
D11*
X48260000Y-90170000D03*
X48260000Y-92710000D03*
X48260000Y-95250000D03*
X48260000Y-97790000D03*
X48260000Y-100330000D03*
X48260000Y-102870000D03*
X55880000Y-102870000D03*
X55880000Y-100330000D03*
X55880000Y-97790000D03*
X55880000Y-95250000D03*
X55880000Y-92710000D03*
X55880000Y-90170000D03*
X55880000Y-87630000D03*
%TD*%
%TO.C,R3*%
X154210000Y-38100000D03*
X154210000Y-45720000D03*
%TD*%
D19*
%TO.C,SW5*%
X120650000Y-145360000D03*
X127150000Y-145360000D03*
X120650000Y-149860000D03*
X127150000Y-149860000D03*
%TD*%
%TO.C,SW4*%
X163830000Y-145360000D03*
X170330000Y-145360000D03*
X163830000Y-149860000D03*
X170330000Y-149860000D03*
%TD*%
D10*
%TO.C,U14*%
X137160000Y-43050000D03*
D11*
X137160000Y-45590000D03*
X137160000Y-48130000D03*
X137160000Y-50670000D03*
X137160000Y-53210000D03*
X137160000Y-55750000D03*
X137160000Y-58290000D03*
X137160000Y-60830000D03*
X137160000Y-63370000D03*
X137160000Y-65910000D03*
X144780000Y-65910000D03*
X144780000Y-63370000D03*
X144780000Y-60830000D03*
X144780000Y-58290000D03*
X144780000Y-55750000D03*
X144780000Y-53210000D03*
X144780000Y-50670000D03*
X144780000Y-48130000D03*
X144780000Y-45590000D03*
X144780000Y-43050000D03*
%TD*%
D12*
%TO.C,D7*%
X36830000Y-124460000D03*
D13*
X39370000Y-124460000D03*
%TD*%
D10*
%TO.C,C2*%
X33695000Y-50800000D03*
D11*
X36195000Y-50800000D03*
%TD*%
D20*
%TO.C,U11*%
X64770000Y-55650000D03*
D21*
X62230000Y-53110000D03*
X62230000Y-55650000D03*
X59690000Y-53110000D03*
X59690000Y-55650000D03*
X57150000Y-53110000D03*
X54610000Y-55650000D03*
X57150000Y-55650000D03*
X54610000Y-58190000D03*
X57150000Y-58190000D03*
X54610000Y-60730000D03*
X57150000Y-60730000D03*
X54610000Y-63270000D03*
X57150000Y-63270000D03*
X54610000Y-65810000D03*
X57150000Y-65810000D03*
X54610000Y-68350000D03*
X57150000Y-70890000D03*
X57150000Y-68350000D03*
X59690000Y-70890000D03*
X59690000Y-68350000D03*
X62230000Y-70890000D03*
X62230000Y-68350000D03*
X64770000Y-70890000D03*
X64770000Y-68350000D03*
X67310000Y-70890000D03*
X67310000Y-68350000D03*
X69850000Y-70890000D03*
X72390000Y-68350000D03*
X69850000Y-68350000D03*
X72390000Y-65810000D03*
X69850000Y-65810000D03*
X72390000Y-63270000D03*
X69850000Y-63270000D03*
X72390000Y-60730000D03*
X69850000Y-60730000D03*
X72390000Y-58190000D03*
X69850000Y-58190000D03*
X72390000Y-55650000D03*
X69850000Y-53110000D03*
X69850000Y-55650000D03*
X67310000Y-53110000D03*
X67310000Y-55650000D03*
X64770000Y-53110000D03*
%TD*%
D11*
%TO.C,C27*%
X172625000Y-55840000D03*
X172625000Y-50840000D03*
%TD*%
%TO.C,C6*%
X49610000Y-137160000D03*
X54610000Y-137160000D03*
%TD*%
D22*
%TO.C,U13*%
X85685000Y-49530000D03*
D11*
X88225000Y-49530000D03*
X90765000Y-49530000D03*
X93305000Y-49530000D03*
X95845000Y-49530000D03*
X98385000Y-49530000D03*
X100925000Y-49530000D03*
X103465000Y-49530000D03*
X103465000Y-41910000D03*
X100925000Y-41910000D03*
X98385000Y-41910000D03*
X95845000Y-41910000D03*
X93305000Y-41910000D03*
X90765000Y-41910000D03*
X88225000Y-41910000D03*
X85685000Y-41910000D03*
%TD*%
%TO.C,R2*%
X59055000Y-150495000D03*
X59055000Y-142875000D03*
%TD*%
D12*
%TO.C,D4*%
X36830000Y-101600000D03*
D13*
X39370000Y-101600000D03*
%TD*%
D23*
%TO.C,H1*%
X29210000Y-30480000D03*
%TD*%
D11*
%TO.C,R1*%
X62230000Y-46355000D03*
X54610000Y-46355000D03*
%TD*%
D12*
%TO.C,D3*%
X36830000Y-93980000D03*
D13*
X39370000Y-93980000D03*
%TD*%
D11*
%TO.C,C15*%
X162305000Y-131005000D03*
X162305000Y-126005000D03*
%TD*%
D24*
%TO.C,U5*%
X156845000Y-95612500D03*
D25*
X154305000Y-95612500D03*
X151765000Y-95612500D03*
X149225000Y-95612500D03*
X146685000Y-95612500D03*
X144145000Y-95612500D03*
X141605000Y-95612500D03*
X139065000Y-95612500D03*
X136525000Y-95612500D03*
X133985000Y-95612500D03*
X131445000Y-95612500D03*
X128905000Y-95612500D03*
X126365000Y-95612500D03*
X123825000Y-95612500D03*
X121285000Y-95612500D03*
X118745000Y-95612500D03*
X118745000Y-110852500D03*
X121285000Y-110852500D03*
X123825000Y-110852500D03*
X126365000Y-110852500D03*
X128905000Y-110852500D03*
X131445000Y-110852500D03*
X133985000Y-110852500D03*
X136525000Y-110852500D03*
X139065000Y-110852500D03*
X141605000Y-110852500D03*
X144145000Y-110852500D03*
X146685000Y-110852500D03*
X149225000Y-110852500D03*
X151765000Y-110852500D03*
X154305000Y-110852500D03*
X156845000Y-110852500D03*
%TD*%
D23*
%TO.C,H3*%
X29210000Y-149860000D03*
%TD*%
D12*
%TO.C,D8*%
X36830000Y-132080000D03*
D13*
X39370000Y-132080000D03*
%TD*%
D26*
%TO.C,SW1*%
X38100000Y-60596000D03*
X38100000Y-65096000D03*
X38100000Y-69596000D03*
%TD*%
D10*
%TO.C,U6*%
X60960000Y-85090000D03*
D11*
X60960000Y-87630000D03*
X60960000Y-90170000D03*
X60960000Y-92710000D03*
X60960000Y-95250000D03*
X60960000Y-97790000D03*
X60960000Y-100330000D03*
X60960000Y-102870000D03*
X68580000Y-102870000D03*
X68580000Y-100330000D03*
X68580000Y-97790000D03*
X68580000Y-95250000D03*
X68580000Y-92710000D03*
X68580000Y-90170000D03*
X68580000Y-87630000D03*
X68580000Y-85090000D03*
%TD*%
%TO.C,C25*%
X116840000Y-149860000D03*
X116840000Y-144860000D03*
%TD*%
D12*
%TO.C,D1*%
X36830000Y-78740000D03*
D13*
X39370000Y-78740000D03*
%TD*%
D11*
%TO.C,C9*%
X54610000Y-83820000D03*
X49610000Y-83820000D03*
%TD*%
D19*
%TO.C,SW6*%
X142240000Y-145360000D03*
X148740000Y-145360000D03*
X142240000Y-149860000D03*
X148740000Y-149860000D03*
%TD*%
D11*
%TO.C,C21*%
X77470000Y-60960000D03*
X77470000Y-65960000D03*
%TD*%
D10*
%TO.C,U3*%
X121920000Y-43050000D03*
D11*
X121920000Y-45590000D03*
X121920000Y-48130000D03*
X121920000Y-50670000D03*
X121920000Y-53210000D03*
X121920000Y-55750000D03*
X121920000Y-58290000D03*
X121920000Y-60830000D03*
X121920000Y-63370000D03*
X121920000Y-65910000D03*
X129540000Y-65910000D03*
X129540000Y-63370000D03*
X129540000Y-60830000D03*
X129540000Y-58290000D03*
X129540000Y-55750000D03*
X129540000Y-53210000D03*
X129540000Y-50670000D03*
X129540000Y-48130000D03*
X129540000Y-45590000D03*
X129540000Y-43050000D03*
%TD*%
%TO.C,R8*%
X173990000Y-149860000D03*
X173990000Y-142240000D03*
%TD*%
D14*
%TO.C,RN2*%
X29210000Y-93980000D03*
D11*
X29210000Y-96520000D03*
X29210000Y-99060000D03*
X29210000Y-101600000D03*
X29210000Y-104140000D03*
X29210000Y-106680000D03*
X29210000Y-109220000D03*
X29210000Y-111760000D03*
X29210000Y-114300000D03*
%TD*%
D10*
%TO.C,U1*%
X86360000Y-85090000D03*
D11*
X86360000Y-87630000D03*
X86360000Y-90170000D03*
X86360000Y-92710000D03*
X86360000Y-95250000D03*
X86360000Y-97790000D03*
X86360000Y-100330000D03*
X86360000Y-102870000D03*
X86360000Y-105410000D03*
X86360000Y-107950000D03*
X86360000Y-110490000D03*
X86360000Y-113030000D03*
X86360000Y-115570000D03*
X86360000Y-118110000D03*
X86360000Y-120650000D03*
X86360000Y-123190000D03*
X86360000Y-125730000D03*
X86360000Y-128270000D03*
X86360000Y-130810000D03*
X86360000Y-133350000D03*
X101600000Y-133350000D03*
X101600000Y-130810000D03*
X101600000Y-128270000D03*
X101600000Y-125730000D03*
X101600000Y-123190000D03*
X101600000Y-120650000D03*
X101600000Y-118110000D03*
X101600000Y-115570000D03*
X101600000Y-113030000D03*
X101600000Y-110490000D03*
X101600000Y-107950000D03*
X101600000Y-105410000D03*
X101600000Y-102870000D03*
X101600000Y-100330000D03*
X101600000Y-97790000D03*
X101600000Y-95250000D03*
X101600000Y-92710000D03*
X101600000Y-90170000D03*
X101600000Y-87630000D03*
X101600000Y-85090000D03*
%TD*%
D15*
%TO.C,U10*%
X55880000Y-133350000D03*
D11*
X55880000Y-130810000D03*
X55880000Y-128270000D03*
X55880000Y-125730000D03*
X55880000Y-123190000D03*
X55880000Y-120650000D03*
X55880000Y-118110000D03*
X55880000Y-115570000D03*
X55880000Y-113030000D03*
X55880000Y-110490000D03*
X48260000Y-110490000D03*
X48260000Y-113030000D03*
X48260000Y-115570000D03*
X48260000Y-118110000D03*
X48260000Y-120650000D03*
X48260000Y-123190000D03*
X48260000Y-125730000D03*
X48260000Y-128270000D03*
X48260000Y-130810000D03*
X48260000Y-133350000D03*
%TD*%
%TO.C,C26*%
X138430000Y-149860000D03*
X138430000Y-144860000D03*
%TD*%
%TO.C,R11*%
X156845000Y-72390000D03*
X149225000Y-72390000D03*
%TD*%
D10*
%TO.C,U7*%
X73660000Y-87630000D03*
D11*
X73660000Y-90170000D03*
X73660000Y-92710000D03*
X73660000Y-95250000D03*
X73660000Y-97790000D03*
X73660000Y-100330000D03*
X73660000Y-102870000D03*
X81280000Y-102870000D03*
X81280000Y-100330000D03*
X81280000Y-97790000D03*
X81280000Y-95250000D03*
X81280000Y-92710000D03*
X81280000Y-90170000D03*
X81280000Y-87630000D03*
%TD*%
%TO.C,C13*%
X128230000Y-38605000D03*
X123230000Y-38605000D03*
%TD*%
D27*
%TO.C,J2*%
X106480000Y-32315300D03*
X81480000Y-32315300D03*
D14*
X99520000Y-35155300D03*
D11*
X96750000Y-35155300D03*
X93980000Y-35155300D03*
X91210000Y-35155300D03*
X88440000Y-35155300D03*
X98135000Y-32315300D03*
X95365000Y-32315300D03*
X92595000Y-32315300D03*
X89825000Y-32315300D03*
%TD*%
D28*
%TO.C,J4*%
X63470000Y-35385000D03*
X66070000Y-35385000D03*
X61370000Y-35385000D03*
X68170000Y-35385000D03*
X61370000Y-37885000D03*
X68170000Y-37885000D03*
D29*
X58020000Y-32385000D03*
X71520000Y-32385000D03*
X64770000Y-31585000D03*
%TD*%
D11*
%TO.C,C4*%
X75010000Y-137160000D03*
X80010000Y-137160000D03*
%TD*%
D23*
%TO.C,H4*%
X187325000Y-149860000D03*
%TD*%
D12*
%TO.C,D6*%
X36830000Y-116840000D03*
D13*
X39370000Y-116840000D03*
%TD*%
D11*
%TO.C,C8*%
X67310000Y-81280000D03*
X62310000Y-81280000D03*
%TD*%
%TO.C,C3*%
X80010000Y-142335000D03*
X80010000Y-147335000D03*
%TD*%
D17*
%TO.C,J1*%
X41930000Y-42772500D03*
D30*
X44430000Y-42772500D03*
X44430000Y-40772500D03*
X41930000Y-40772500D03*
D31*
X37160000Y-38062500D03*
X49200000Y-38062500D03*
%TD*%
D11*
%TO.C,C5*%
X62310000Y-137160000D03*
X67310000Y-137160000D03*
%TD*%
D32*
%TO.C,U9*%
X157385000Y-120765000D03*
D11*
X154845000Y-120765000D03*
X152305000Y-120765000D03*
X149765000Y-120765000D03*
X147225000Y-120765000D03*
X144685000Y-120765000D03*
X142145000Y-120765000D03*
X139605000Y-120765000D03*
X137065000Y-120765000D03*
X134525000Y-120765000D03*
X131985000Y-120765000D03*
X129445000Y-120765000D03*
X126905000Y-120765000D03*
X124365000Y-120765000D03*
X121825000Y-120765000D03*
X119285000Y-120765000D03*
X119285000Y-136005000D03*
X121825000Y-136005000D03*
X124365000Y-136005000D03*
X126905000Y-136005000D03*
X129445000Y-136005000D03*
X131985000Y-136005000D03*
X134525000Y-136005000D03*
X137065000Y-136005000D03*
X139605000Y-136005000D03*
X142145000Y-136005000D03*
X144685000Y-136005000D03*
X147225000Y-136005000D03*
X149765000Y-136005000D03*
X152305000Y-136005000D03*
X154845000Y-136005000D03*
X157385000Y-136005000D03*
%TD*%
%TO.C,R10*%
X152400000Y-149860000D03*
X152400000Y-142240000D03*
%TD*%
%TO.C,C23*%
X151750000Y-68580000D03*
X156750000Y-68580000D03*
%TD*%
%TO.C,R9*%
X130810000Y-149860000D03*
X130810000Y-142240000D03*
%TD*%
D12*
%TO.C,D2*%
X36830000Y-86360000D03*
D13*
X39370000Y-86360000D03*
%TD*%
D11*
%TO.C,C12*%
X170805000Y-106005000D03*
X170805000Y-101005000D03*
%TD*%
D10*
%TO.C,C20*%
X83820000Y-55880000D03*
D11*
X86320000Y-55880000D03*
%TD*%
D33*
%TO.C,Y1*%
X154210000Y-62130000D03*
X154210000Y-57250000D03*
%TD*%
D11*
%TO.C,C24*%
X161830000Y-33020000D03*
X166830000Y-33020000D03*
%TD*%
%TO.C,C11*%
X143470000Y-38605000D03*
X138470000Y-38605000D03*
%TD*%
D23*
%TO.C,H2*%
X187325000Y-30480000D03*
%TD*%
D17*
%TO.C,J5*%
X184785000Y-48785000D03*
D30*
X184785000Y-51325000D03*
X184785000Y-53865000D03*
%TD*%
D11*
%TO.C,C16*%
X80605000Y-43180000D03*
X80605000Y-48180000D03*
%TD*%
D10*
%TO.C,C19*%
X96520000Y-55880000D03*
D11*
X99020000Y-55880000D03*
%TD*%
D10*
%TO.C,C17*%
X90170000Y-55880000D03*
D11*
X92670000Y-55880000D03*
%TD*%
M02*
