M48
; DRILL file {KiCad 9.0.1} date 2025-05-21T13:32:23+0200
; FORMAT={-:-/ absolute / metric / decimal}
; #@! TF.CreationDate,2025-05-21T13:32:23+02:00
; #@! TF.GenerationSoftware,Kicad,Pcbnew,9.0.1
; #@! TF.FileFunction,Plated,1,2,PTH
FMAT,2
METRIC
; #@! TA.AperFunction,Plated,PTH,ViaDrill
T1C0.300
; #@! TA.AperFunction,Plated,PTH,ComponentDrill
T2C0.800
; #@! TA.AperFunction,Plated,PTH,ComponentDrill
T3C0.900
; #@! TA.AperFunction,Plated,PTH,ComponentDrill
T4C0.920
; #@! TA.AperFunction,Plated,PTH,ComponentDrill
T5C1.000
; #@! TA.AperFunction,Plated,PTH,ComponentDrill
T6C1.100
; #@! TA.AperFunction,Plated,PTH,ComponentDrill
T7C2.330
%
G90
G05
T1
X102.114Y-64.925
X103.625Y-83.072
X103.681Y-82.031
X105.094Y-72.39
X109.057Y-89.749
X109.065Y-93.378
X111.474Y-61.201
X115.275Y-82.413
X117.025Y-58.278
X119.325Y-120.399
X124.219Y-114.989
X125.093Y-116.734
X125.114Y-117.617
X129.516Y-49.257
X131.123Y-55.102
X132.072Y-62.071
X132.072Y-85.539
X132.574Y-99.06
X132.591Y-94.507
X134.364Y-101.6
X134.747Y-74.807
X134.835Y-103.193
X136.006Y-107.395
X145.094Y-110.744
X145.095Y-112.345
X146.984Y-58.544
X147.522Y-59.984
X148.803Y-92.323
X149.286Y-48.424
X149.873Y-48.968
X149.899Y-58.061
X152.813Y-96.52
X153.162Y-115.824
X153.774Y-93.867
X155.698Y-66.04
X155.759Y-90.291
X159.734Y-54.892
X160.082Y-90.0
X160.223Y-67.998
X161.179Y-94.467
X161.33Y-90.823
X161.436Y-82.38
X163.364Y-72.268
X164.565Y-50.224
X166.511Y-91.023
X167.615Y-99.911
X167.815Y-91.44
X168.775Y-129.385
X176.242Y-66.922
X177.326Y-63.762
X177.8Y-95.25
X179.426Y-69.494
X179.593Y-90.757
X180.765Y-93.555
X190.276Y-60.942
X192.44Y-52.797
X192.682Y-49.284
X199.364Y-47.93
X201.773Y-72.193
X204.695Y-55.355
X206.441Y-59.657
X211.455Y-130.81
X215.279Y-102.62
X227.076Y-59.944
X229.87Y-59.944
X232.866Y-104.433
T2
X83.82Y-66.04
X83.82Y-68.58
X83.82Y-71.12
X83.82Y-73.66
X83.82Y-76.2
X83.82Y-78.74
X83.82Y-81.28
X83.82Y-83.82
X83.82Y-86.36
X88.94Y-38.1
X91.44Y-38.1
X96.52Y-123.135
X96.52Y-128.135
X99.06Y-58.42
X99.06Y-60.96
X99.06Y-63.5
X99.06Y-66.04
X99.06Y-68.58
X99.06Y-71.12
X99.06Y-73.66
X99.06Y-81.28
X99.06Y-83.82
X99.06Y-86.36
X99.06Y-88.9
X99.06Y-91.44
X99.06Y-93.98
X99.06Y-96.52
X99.06Y-99.06
X99.06Y-101.6
X99.06Y-104.14
X100.37Y-53.34
X100.41Y-109.22
X105.37Y-53.34
X105.41Y-45.72
X105.41Y-109.22
X106.68Y-58.42
X106.68Y-60.96
X106.68Y-63.5
X106.68Y-66.04
X106.68Y-68.58
X106.68Y-71.12
X106.68Y-73.66
X106.68Y-81.28
X106.68Y-83.82
X106.68Y-86.36
X106.68Y-88.9
X106.68Y-91.44
X106.68Y-93.98
X106.68Y-96.52
X106.68Y-99.06
X106.68Y-101.6
X106.68Y-104.14
X111.76Y-120.015
X111.76Y-127.635
X113.03Y-45.72
X114.3Y-55.88
X114.3Y-58.42
X114.3Y-60.96
X114.3Y-63.5
X114.3Y-66.04
X114.3Y-68.58
X114.3Y-71.12
X114.3Y-73.66
X114.3Y-81.28
X114.3Y-83.82
X114.3Y-86.36
X114.3Y-88.9
X114.3Y-91.44
X114.3Y-93.98
X114.3Y-96.52
X114.3Y-99.06
X114.3Y-101.6
X114.3Y-104.14
X115.57Y-50.8
X115.65Y-109.22
X119.38Y-123.27
X119.38Y-128.27
X120.57Y-50.8
X120.65Y-109.22
X121.92Y-55.88
X121.92Y-58.42
X121.92Y-60.96
X121.92Y-63.5
X121.92Y-66.04
X121.92Y-68.58
X121.92Y-71.12
X121.92Y-73.66
X121.92Y-81.28
X121.92Y-83.82
X121.92Y-86.36
X121.92Y-88.9
X121.92Y-91.44
X121.92Y-93.98
X121.92Y-96.52
X121.92Y-99.06
X121.92Y-101.6
X121.92Y-104.14
X123.19Y-30.48
X129.54Y-58.42
X129.54Y-60.96
X129.54Y-63.5
X129.54Y-66.04
X129.54Y-68.58
X129.54Y-71.12
X129.54Y-73.66
X129.54Y-81.28
X129.54Y-83.82
X129.54Y-86.36
X129.54Y-88.9
X129.54Y-91.44
X129.54Y-93.98
X129.54Y-96.52
X129.54Y-99.06
X129.54Y-101.6
X129.54Y-104.14
X130.81Y-30.48
X130.81Y-53.34
X130.89Y-109.22
X134.62Y-120.015
X134.62Y-127.635
X135.81Y-53.34
X135.89Y-109.22
X137.16Y-58.42
X137.16Y-60.96
X137.16Y-63.5
X137.16Y-66.04
X137.16Y-68.58
X137.16Y-71.12
X137.16Y-73.66
X137.16Y-81.28
X137.16Y-83.82
X137.16Y-86.36
X137.16Y-88.9
X137.16Y-91.44
X137.16Y-93.98
X137.16Y-96.52
X137.16Y-99.06
X137.16Y-101.6
X137.16Y-104.14
X137.2Y-40.64
X139.7Y-40.64
X147.32Y-63.5
X147.32Y-66.04
X147.32Y-68.58
X147.32Y-71.12
X147.32Y-73.66
X147.32Y-76.2
X147.32Y-78.74
X147.32Y-81.28
X147.32Y-83.82
X147.32Y-86.36
X147.32Y-88.9
X147.32Y-91.44
X147.32Y-93.98
X147.32Y-96.52
X147.32Y-99.06
X147.32Y-101.6
X147.32Y-104.14
X147.32Y-106.68
X147.32Y-109.22
X147.32Y-111.76
X147.32Y-120.65
X147.32Y-128.27
X152.4Y-58.42
X157.4Y-58.42
X159.298Y-115.824
X162.56Y-63.5
X162.56Y-66.04
X162.56Y-68.58
X162.56Y-71.12
X162.56Y-73.66
X162.56Y-76.2
X162.56Y-78.74
X162.56Y-81.28
X162.56Y-83.82
X162.56Y-86.36
X162.56Y-88.9
X162.56Y-91.44
X162.56Y-93.98
X162.56Y-96.52
X162.56Y-99.06
X162.56Y-101.6
X162.56Y-104.14
X162.56Y-106.68
X162.56Y-109.22
X162.56Y-111.76
X162.56Y-120.65
X162.56Y-128.27
X164.298Y-115.824
X165.1Y-33.02
X165.1Y-57.15
X167.64Y-33.02
X167.64Y-57.15
X170.18Y-33.02
X170.18Y-57.15
X170.18Y-66.04
X170.18Y-68.58
X170.18Y-71.12
X170.18Y-73.66
X170.18Y-76.2
X170.18Y-78.74
X170.18Y-81.28
X170.18Y-83.82
X170.18Y-86.36
X170.18Y-88.9
X171.45Y-61.595
X172.72Y-33.02
X172.72Y-57.15
X175.26Y-33.02
X175.26Y-57.15
X176.45Y-61.595
X177.8Y-33.02
X177.8Y-57.15
X177.8Y-66.04
X177.8Y-68.58
X177.8Y-71.12
X177.8Y-73.66
X177.8Y-76.2
X177.8Y-78.74
X177.8Y-81.28
X177.8Y-83.82
X177.8Y-86.36
X177.8Y-88.9
X180.34Y-33.02
X180.34Y-57.15
X182.88Y-33.02
X182.88Y-57.15
X185.42Y-33.02
X185.42Y-57.15
X185.42Y-63.5
X185.42Y-66.04
X185.42Y-68.58
X185.42Y-71.12
X185.42Y-73.66
X185.42Y-76.2
X185.42Y-78.74
X185.42Y-81.28
X185.42Y-83.82
X185.42Y-86.36
X185.42Y-88.9
X185.42Y-91.44
X185.42Y-93.98
X185.42Y-96.52
X185.42Y-99.06
X185.42Y-101.6
X200.66Y-63.5
X200.66Y-66.04
X200.66Y-68.58
X200.66Y-71.12
X200.66Y-73.66
X200.66Y-76.2
X200.66Y-78.74
X200.66Y-81.28
X200.66Y-83.82
X200.66Y-86.36
X200.66Y-88.9
X200.66Y-91.44
X200.66Y-93.98
X200.66Y-96.52
X200.66Y-99.06
X200.66Y-101.6
X203.835Y-63.5
X203.835Y-68.5
X223.52Y-114.3
X226.06Y-114.3
X228.6Y-114.3
X231.14Y-114.3
X233.68Y-114.3
X234.95Y-63.5
X234.95Y-68.5
X236.22Y-114.3
X238.76Y-114.3
X241.3Y-114.3
X243.84Y-114.3
X248.92Y-71.12
X248.92Y-73.66
X248.92Y-76.2
X248.92Y-78.74
X248.92Y-81.28
X248.92Y-83.82
X248.92Y-86.36
X248.92Y-88.9
X248.92Y-91.44
T3
X88.9Y-49.31
X88.9Y-56.78
X88.9Y-64.25
X88.9Y-71.72
X88.9Y-79.19
X88.9Y-86.66
X88.9Y-94.13
X88.9Y-101.6
X91.44Y-49.31
X91.44Y-56.78
X91.44Y-64.25
X91.44Y-71.72
X91.44Y-79.19
X91.44Y-86.66
X91.44Y-94.13
X91.44Y-101.6
X137.16Y-30.48
X139.7Y-30.48
X145.68Y-40.64
X145.68Y-50.8
X148.22Y-40.64
X148.22Y-50.8
X153.15Y-40.64
X153.15Y-50.8
X155.69Y-40.64
X155.69Y-50.8
X160.62Y-40.64
X160.62Y-50.8
X163.16Y-40.64
X163.16Y-50.8
X168.09Y-40.64
X168.09Y-50.8
X170.63Y-40.64
X170.63Y-50.8
X175.56Y-40.64
X175.56Y-50.8
X178.1Y-40.64
X178.1Y-50.8
X183.03Y-40.64
X183.03Y-50.8
X185.57Y-40.64
X185.57Y-50.8
X190.5Y-40.64
X190.5Y-50.8
X191.55Y-124.46
X193.04Y-40.64
X193.04Y-50.8
X194.09Y-124.46
X197.97Y-40.64
X197.97Y-50.8
X199.02Y-124.46
X200.51Y-40.64
X200.51Y-50.8
X201.56Y-124.46
X206.49Y-124.46
X209.03Y-124.46
X213.96Y-124.46
X216.5Y-124.46
X221.43Y-124.46
X223.97Y-124.46
X228.9Y-124.46
X231.44Y-124.46
X236.37Y-124.46
X238.91Y-124.46
X241.3Y-54.39
X241.3Y-61.86
X241.3Y-69.33
X241.3Y-76.8
X241.3Y-84.27
X241.3Y-91.74
X241.3Y-99.21
X241.3Y-106.68
X243.84Y-54.39
X243.84Y-61.86
X243.84Y-69.33
X243.84Y-76.8
X243.84Y-84.27
X243.84Y-91.74
X243.84Y-99.21
X243.84Y-106.68
X243.84Y-124.46
X246.38Y-124.46
T4
X105.43Y-37.597
X105.43Y-39.597
X107.93Y-37.597
X107.93Y-39.597
T5
X213.36Y-63.5
X213.36Y-66.04
X213.36Y-68.58
X213.36Y-71.12
X213.36Y-73.66
X213.36Y-76.2
X213.36Y-78.74
X213.36Y-81.28
X213.36Y-83.82
X213.36Y-86.36
X213.36Y-88.9
X213.36Y-91.44
X213.36Y-93.98
X213.36Y-96.52
X213.36Y-99.06
X213.36Y-101.6
X228.6Y-63.5
X228.6Y-66.04
X228.6Y-68.58
X228.6Y-71.12
X228.6Y-73.66
X228.6Y-76.2
X228.6Y-78.74
X228.6Y-81.28
X228.6Y-83.82
X228.6Y-86.36
X228.6Y-88.9
X228.6Y-91.44
X228.6Y-93.98
X228.6Y-96.52
X228.6Y-99.06
X228.6Y-101.6
T6
X100.18Y-123.135
X100.18Y-127.635
X106.68Y-123.135
X106.68Y-127.635
X123.04Y-123.135
X123.04Y-127.635
X129.54Y-123.135
X129.54Y-127.635
T7
X100.66Y-34.887
X112.7Y-34.887
T5
G00X128.0Y-36.72
M15
G01X126.0Y-36.72
M16
G05
G00X128.0Y-41.22
M15
G01X126.0Y-41.22
M16
G05
G00X128.0Y-45.72
M15
G01X126.0Y-45.72
M16
G05
M30
